<mxfile host="app.diagrams.net" modified="2020-05-07T16:23:34.779Z" agent="5.0 (Macintosh; Intel Mac OS X 10_15_4) AppleWebKit/537.36 (KHTML, like Gecko) Chrome/81.0.4044.129 Safari/537.36" etag="f6kwh4xnXIfFeySBVOdW" version="13.0.8" type="github">
  <diagram id="C5RBs43oDa-KdzZeNtuy" name="Page-1">
    <mxGraphModel dx="3200" dy="1035" grid="1" gridSize="10" guides="1" tooltips="1" connect="1" arrows="1" fold="1" page="1" pageScale="1" pageWidth="827" pageHeight="1169" math="0" shadow="0">
      <root>
        <mxCell id="WIyWlLk6GJQsqaUBKTNV-0" />
        <mxCell id="WIyWlLk6GJQsqaUBKTNV-1" parent="WIyWlLk6GJQsqaUBKTNV-0" />
        <mxCell id="YoF2BPIvjC0NpefR5XAe-6" style="rounded=0;orthogonalLoop=1;jettySize=auto;html=1;entryX=0;entryY=0.5;entryDx=0;entryDy=0;" edge="1" parent="WIyWlLk6GJQsqaUBKTNV-1" source="YoF2BPIvjC0NpefR5XAe-0" target="YoF2BPIvjC0NpefR5XAe-1">
          <mxGeometry relative="1" as="geometry" />
        </mxCell>
        <mxCell id="YoF2BPIvjC0NpefR5XAe-101" style="edgeStyle=none;rounded=0;orthogonalLoop=1;jettySize=auto;html=1;entryX=0.5;entryY=0;entryDx=0;entryDy=0;" edge="1" parent="WIyWlLk6GJQsqaUBKTNV-1" source="YoF2BPIvjC0NpefR5XAe-0" target="YoF2BPIvjC0NpefR5XAe-8">
          <mxGeometry relative="1" as="geometry" />
        </mxCell>
        <mxCell id="YoF2BPIvjC0NpefR5XAe-0" value="Dialer Started" style="rounded=1;whiteSpace=wrap;html=1;fillColor=#d5e8d4;strokeColor=#82b366;" vertex="1" parent="WIyWlLk6GJQsqaUBKTNV-1">
          <mxGeometry x="40" y="170" width="120" height="60" as="geometry" />
        </mxCell>
        <mxCell id="YoF2BPIvjC0NpefR5XAe-1" value="Autobot Initialized" style="rounded=1;whiteSpace=wrap;html=1;fillColor=#dae8fc;strokeColor=#6c8ebf;" vertex="1" parent="WIyWlLk6GJQsqaUBKTNV-1">
          <mxGeometry x="230" y="170" width="120" height="60" as="geometry" />
        </mxCell>
        <mxCell id="YoF2BPIvjC0NpefR5XAe-2" value="Worker status: Available" style="text;html=1;strokeColor=none;fillColor=none;align=left;verticalAlign=middle;whiteSpace=wrap;rounded=0;" vertex="1" parent="WIyWlLk6GJQsqaUBKTNV-1">
          <mxGeometry x="360" y="180" width="190" height="20" as="geometry" />
        </mxCell>
        <mxCell id="YoF2BPIvjC0NpefR5XAe-3" value="Worker capacity: stats.open" style="text;html=1;strokeColor=none;fillColor=none;align=left;verticalAlign=middle;whiteSpace=wrap;rounded=0;" vertex="1" parent="WIyWlLk6GJQsqaUBKTNV-1">
          <mxGeometry x="360" y="200" width="190" height="20" as="geometry" />
        </mxCell>
        <mxCell id="YoF2BPIvjC0NpefR5XAe-7" value="" style="shape=image;verticalLabelPosition=bottom;labelBackgroundColor=#ffffff;verticalAlign=top;aspect=fixed;imageAspect=0;image=data:image/svg+xml,PHN2ZyB4bWxucz0iaHR0cDovL3d3dy53My5vcmcvMjAwMC9zdmciIHdpZHRoPSIxNjYuMiIgaGVpZ2h0PSI1MCIgdmlld0JveD0iLTMxMyAzNzYgMTY2LjIgNTAiPjxnIGZpbGw9IiNGMTJFNDUiPjxwYXRoIGQ9Ik0tMTk1LjkgMzg1LjhoLTguOGMtLjIgMC0uNC4yLS40LjR2NS4xYzAgLjIuMi40LjQuNGg4LjhjLjIgMCAuNC0uMi40LS40di01LjFjLjEtLjItLjEtLjQtLjQtLjR6bS0uMSA3LjZoLTE3Yy0uMiAwLS41LjItLjYuNGwtMi4yIDguMy0uMS40LTIuNi04LjljLS4xLS4yLS4zLS40LS42LS40aC02LjZjLS4yIDAtLjUuMi0uNi40bC0yLjUgOC4zLS4xLjQtLjEtLjItMS00LjEtMS4xLTQuMWMtLjEtLjItLjMtLjQtLjYtLjRILTI0NXYtNy4yYzAtLjItLjMtLjUtLjYtLjRsLTguNCAyLjZjLS4zLjEtLjQuMi0uNC40djQuNWgtMi4yYy0uMiAwLS40LjItLjQuNHY2LjRjMCAuMi4yLjQuNC40aDIuMnY3LjhjMCA1LjUgMyA4LjEgOC41IDguMSAyLjMgMCA0LjUtLjUgNi0xLjN2LTYuNmMwLS4zLS4zLS40LS41LS40LS45LjQtMS42LjUtMi40LjUtMS41IDAtMi4zLS42LTIuMy0yLjN2LTUuN2g0LjhjLjIgMCAuNC0uMi40LS40di01LjRsNi4zIDIwLjljLjEuMi4zLjQuNi40aDdjLjIgMCAuNS0uMi42LS40bDMtOS4zIDEuNSA0LjggMS40IDQuNGMuMS4yLjMuNC42LjRoN2MuMiAwIC41LS4yLjYtLjRsNi40LTIxdjIxYzAgLjIuMi40LjQuNGg4LjVjLjIgMCAuNC0uMi40LS40di0yMS44YzAtLjMtLjItLjUtLjQtLjV6bTExLjItNy42aC04LjVjLS4yIDAtLjQuMi0uNC40djI5LjVjMCAuMi4yLjQuNC40aDguNWMuMiAwIC40LS4yLjQtLjR2LTI5LjVjMC0uMi0uMi0uNC0uNC0uNHptMTEuMyAwaC04LjhjLS4yIDAtLjQuMi0uNC40djUuMWMwIC4yLjIuNC40LjRoOC44Yy4yIDAgLjQtLjIuNC0uNHYtNS4xYy4xLS4yLS4xLS40LS40LS40em0tLjEgNy42aC04LjVjLS4yIDAtLjQuMi0uNC40djIxLjljMCAuMi4yLjQuNC40aDguNWMuMiAwIC40LS4yLjQtLjR2LTIxLjhjMC0uMy0uMi0uNS0uNC0uNXptMTQuMS0uNWMtNy41IDAtMTIuOCA1LjUtMTIuOCAxMS45di4xYzAgNi40IDUuMyAxMS44IDEyLjcgMTEuOCA3LjUgMCAxMi44LTUuNSAxMi44LTExLjl2LS4xYzAtNi40LTUuMy0xMS44LTEyLjctMTEuOHptMy42IDExLjljMCAyLjItMS41IDMuOS0zLjYgMy45cy0zLjctMS44LTMuNy00di0uMWMwLTIuMiAxLjUtMy45IDMuNi0zLjlzMy43IDEuOCAzLjcgNC4xek0tMjg4IDM3NmMtMTMuOCAwLTI1IDExLjItMjUgMjVzMTEuMiAyNSAyNSAyNSAyNS0xMS4yIDI1LTI1LTExLjItMjUtMjUtMjV6bTAgNDMuNGMtMTAuMiAwLTE4LjQtOC4yLTE4LjQtMTguNHM4LjItMTguNCAxOC40LTE4LjQgMTguNCA4LjIgMTguNCAxOC40LTguMiAxOC40LTE4LjQgMTguNHoiLz48Y2lyY2xlIGN4PSItMjgxLjgiIGN5PSIzOTQuOCIgcj0iNS4yIi8+PGNpcmNsZSBjeD0iLTI4MS44IiBjeT0iNDA3LjIiIHI9IjUuMiIvPjxjaXJjbGUgY3g9Ii0yOTQuMiIgY3k9IjQwNy4yIiByPSI1LjIiLz48Y2lyY2xlIGN4PSItMjk0LjIiIGN5PSIzOTQuOCIgcj0iNS4yIi8+PC9nPjwvc3ZnPg==;" vertex="1" parent="WIyWlLk6GJQsqaUBKTNV-1">
          <mxGeometry x="280" y="148.92000000000002" width="70" height="21.08" as="geometry" />
        </mxCell>
        <mxCell id="YoF2BPIvjC0NpefR5XAe-8" value="Dialer Engine" style="swimlane;align=left;fillColor=#d5e8d4;strokeColor=#82b366;" vertex="1" parent="WIyWlLk6GJQsqaUBKTNV-1">
          <mxGeometry x="-55" y="320" width="310" height="330" as="geometry" />
        </mxCell>
        <mxCell id="YoF2BPIvjC0NpefR5XAe-13" style="edgeStyle=none;rounded=0;orthogonalLoop=1;jettySize=auto;html=1;" edge="1" parent="YoF2BPIvjC0NpefR5XAe-8" source="YoF2BPIvjC0NpefR5XAe-11" target="YoF2BPIvjC0NpefR5XAe-12">
          <mxGeometry relative="1" as="geometry" />
        </mxCell>
        <mxCell id="YoF2BPIvjC0NpefR5XAe-15" value="No" style="edgeLabel;html=1;align=center;verticalAlign=middle;resizable=0;points=[];" vertex="1" connectable="0" parent="YoF2BPIvjC0NpefR5XAe-13">
          <mxGeometry x="0.3333" y="-1" relative="1" as="geometry">
            <mxPoint x="-20" y="-11" as="offset" />
          </mxGeometry>
        </mxCell>
        <mxCell id="YoF2BPIvjC0NpefR5XAe-17" style="edgeStyle=none;rounded=0;orthogonalLoop=1;jettySize=auto;html=1;" edge="1" parent="YoF2BPIvjC0NpefR5XAe-8" source="YoF2BPIvjC0NpefR5XAe-11" target="YoF2BPIvjC0NpefR5XAe-16">
          <mxGeometry relative="1" as="geometry" />
        </mxCell>
        <mxCell id="YoF2BPIvjC0NpefR5XAe-38" value="Yes" style="edgeLabel;html=1;align=center;verticalAlign=middle;resizable=0;points=[];" vertex="1" connectable="0" parent="YoF2BPIvjC0NpefR5XAe-17">
          <mxGeometry x="-0.2512" y="2" relative="1" as="geometry">
            <mxPoint x="-23.09" y="-1.19" as="offset" />
          </mxGeometry>
        </mxCell>
        <mxCell id="YoF2BPIvjC0NpefR5XAe-11" value="Open Slot?" style="rhombus;whiteSpace=wrap;html=1;align=center;fillColor=#f5f5f5;strokeColor=#666666;fontColor=#333333;" vertex="1" parent="YoF2BPIvjC0NpefR5XAe-8">
          <mxGeometry x="42.5" y="120" width="80" height="80" as="geometry" />
        </mxCell>
        <mxCell id="YoF2BPIvjC0NpefR5XAe-113" style="edgeStyle=none;rounded=0;orthogonalLoop=1;jettySize=auto;html=1;" edge="1" parent="YoF2BPIvjC0NpefR5XAe-8" source="YoF2BPIvjC0NpefR5XAe-12" target="YoF2BPIvjC0NpefR5XAe-88">
          <mxGeometry relative="1" as="geometry">
            <Array as="points">
              <mxPoint x="220" y="73" />
            </Array>
          </mxGeometry>
        </mxCell>
        <mxCell id="YoF2BPIvjC0NpefR5XAe-12" value="Wait a bit" style="whiteSpace=wrap;html=1;aspect=fixed;align=center;fillColor=#f5f5f5;strokeColor=#666666;fontColor=#333333;" vertex="1" parent="YoF2BPIvjC0NpefR5XAe-8">
          <mxGeometry x="185" y="125" width="70" height="70" as="geometry" />
        </mxCell>
        <mxCell id="YoF2BPIvjC0NpefR5XAe-18" style="edgeStyle=none;rounded=0;orthogonalLoop=1;jettySize=auto;html=1;entryX=0;entryY=0.5;entryDx=0;entryDy=0;" edge="1" parent="YoF2BPIvjC0NpefR5XAe-8" source="YoF2BPIvjC0NpefR5XAe-16" target="YoF2BPIvjC0NpefR5XAe-11">
          <mxGeometry relative="1" as="geometry">
            <Array as="points">
              <mxPoint x="10" y="283" />
              <mxPoint x="10" y="160" />
            </Array>
          </mxGeometry>
        </mxCell>
        <mxCell id="YoF2BPIvjC0NpefR5XAe-16" value="Queue BOT Task" style="whiteSpace=wrap;html=1;aspect=fixed;align=center;fillColor=#f5f5f5;strokeColor=#666666;fontColor=#333333;" vertex="1" parent="YoF2BPIvjC0NpefR5XAe-8">
          <mxGeometry x="40" y="240" width="85" height="85" as="geometry" />
        </mxCell>
        <mxCell id="YoF2BPIvjC0NpefR5XAe-108" value="" style="group" vertex="1" connectable="0" parent="YoF2BPIvjC0NpefR5XAe-8">
          <mxGeometry x="52.5" y="43" width="60" height="60" as="geometry" />
        </mxCell>
        <mxCell id="YoF2BPIvjC0NpefR5XAe-88" value="" style="shape=image;html=1;verticalAlign=top;verticalLabelPosition=bottom;labelBackgroundColor=#ffffff;imageAspect=0;aspect=fixed;image=https://cdn2.iconfinder.com/data/icons/miscellaneous-12/24/miscellaneous-56-128.png;align=left;" vertex="1" parent="YoF2BPIvjC0NpefR5XAe-108">
          <mxGeometry width="60" height="60" as="geometry" />
        </mxCell>
        <mxCell id="YoF2BPIvjC0NpefR5XAe-97" value="" style="shape=image;html=1;verticalAlign=top;verticalLabelPosition=bottom;labelBackgroundColor=#ffffff;imageAspect=0;aspect=fixed;image=https://cdn4.iconfinder.com/data/icons/common-toolbar/36/Help-2-128.png;align=left;" vertex="1" parent="YoF2BPIvjC0NpefR5XAe-108">
          <mxGeometry x="-17.5" y="20" width="40" height="40" as="geometry" />
        </mxCell>
        <mxCell id="YoF2BPIvjC0NpefR5XAe-107" value="LS Dialer Pacing&amp;nbsp;" style="text;html=1;strokeColor=none;fillColor=none;align=left;verticalAlign=middle;whiteSpace=wrap;rounded=0;" vertex="1" parent="YoF2BPIvjC0NpefR5XAe-8">
          <mxGeometry x="40" y="26" width="100" height="20" as="geometry" />
        </mxCell>
        <mxCell id="YoF2BPIvjC0NpefR5XAe-114" style="edgeStyle=none;rounded=0;orthogonalLoop=1;jettySize=auto;html=1;exitX=0.5;exitY=1;exitDx=0;exitDy=0;entryX=0.5;entryY=0;entryDx=0;entryDy=0;" edge="1" parent="YoF2BPIvjC0NpefR5XAe-8" source="YoF2BPIvjC0NpefR5XAe-88" target="YoF2BPIvjC0NpefR5XAe-11">
          <mxGeometry relative="1" as="geometry" />
        </mxCell>
        <mxCell id="YoF2BPIvjC0NpefR5XAe-21" style="edgeStyle=none;rounded=0;orthogonalLoop=1;jettySize=auto;html=1;entryX=0;entryY=0.5;entryDx=0;entryDy=0;exitX=1;exitY=0.5;exitDx=0;exitDy=0;" edge="1" parent="WIyWlLk6GJQsqaUBKTNV-1" source="YoF2BPIvjC0NpefR5XAe-24" target="YoF2BPIvjC0NpefR5XAe-19">
          <mxGeometry relative="1" as="geometry" />
        </mxCell>
        <mxCell id="YoF2BPIvjC0NpefR5XAe-25" style="edgeStyle=none;rounded=0;orthogonalLoop=1;jettySize=auto;html=1;" edge="1" parent="WIyWlLk6GJQsqaUBKTNV-1" source="YoF2BPIvjC0NpefR5XAe-10" target="YoF2BPIvjC0NpefR5XAe-24">
          <mxGeometry relative="1" as="geometry" />
        </mxCell>
        <mxCell id="YoF2BPIvjC0NpefR5XAe-10" value="BOT message&lt;br&gt;Received&amp;nbsp;" style="rounded=1;whiteSpace=wrap;html=1;fillColor=#d5e8d4;strokeColor=#82b366;" vertex="1" parent="WIyWlLk6GJQsqaUBKTNV-1">
          <mxGeometry x="360" y="320" width="120" height="60" as="geometry" />
        </mxCell>
        <mxCell id="YoF2BPIvjC0NpefR5XAe-29" style="edgeStyle=none;rounded=0;orthogonalLoop=1;jettySize=auto;html=1;" edge="1" parent="WIyWlLk6GJQsqaUBKTNV-1" source="YoF2BPIvjC0NpefR5XAe-19" target="YoF2BPIvjC0NpefR5XAe-27">
          <mxGeometry relative="1" as="geometry" />
        </mxCell>
        <mxCell id="YoF2BPIvjC0NpefR5XAe-19" value="Task Created&lt;br&gt;Autobot Hopper" style="rounded=1;whiteSpace=wrap;html=1;fillColor=#dae8fc;strokeColor=#6c8ebf;" vertex="1" parent="WIyWlLk6GJQsqaUBKTNV-1">
          <mxGeometry x="570" y="431.08000000000004" width="120" height="60" as="geometry" />
        </mxCell>
        <mxCell id="YoF2BPIvjC0NpefR5XAe-20" value="" style="shape=image;verticalLabelPosition=bottom;labelBackgroundColor=#ffffff;verticalAlign=top;aspect=fixed;imageAspect=0;image=data:image/svg+xml,PHN2ZyB4bWxucz0iaHR0cDovL3d3dy53My5vcmcvMjAwMC9zdmciIHdpZHRoPSIxNjYuMiIgaGVpZ2h0PSI1MCIgdmlld0JveD0iLTMxMyAzNzYgMTY2LjIgNTAiPjxnIGZpbGw9IiNGMTJFNDUiPjxwYXRoIGQ9Ik0tMTk1LjkgMzg1LjhoLTguOGMtLjIgMC0uNC4yLS40LjR2NS4xYzAgLjIuMi40LjQuNGg4LjhjLjIgMCAuNC0uMi40LS40di01LjFjLjEtLjItLjEtLjQtLjQtLjR6bS0uMSA3LjZoLTE3Yy0uMiAwLS41LjItLjYuNGwtMi4yIDguMy0uMS40LTIuNi04LjljLS4xLS4yLS4zLS40LS42LS40aC02LjZjLS4yIDAtLjUuMi0uNi40bC0yLjUgOC4zLS4xLjQtLjEtLjItMS00LjEtMS4xLTQuMWMtLjEtLjItLjMtLjQtLjYtLjRILTI0NXYtNy4yYzAtLjItLjMtLjUtLjYtLjRsLTguNCAyLjZjLS4zLjEtLjQuMi0uNC40djQuNWgtMi4yYy0uMiAwLS40LjItLjQuNHY2LjRjMCAuMi4yLjQuNC40aDIuMnY3LjhjMCA1LjUgMyA4LjEgOC41IDguMSAyLjMgMCA0LjUtLjUgNi0xLjN2LTYuNmMwLS4zLS4zLS40LS41LS40LS45LjQtMS42LjUtMi40LjUtMS41IDAtMi4zLS42LTIuMy0yLjN2LTUuN2g0LjhjLjIgMCAuNC0uMi40LS40di01LjRsNi4zIDIwLjljLjEuMi4zLjQuNi40aDdjLjIgMCAuNS0uMi42LS40bDMtOS4zIDEuNSA0LjggMS40IDQuNGMuMS4yLjMuNC42LjRoN2MuMiAwIC41LS4yLjYtLjRsNi40LTIxdjIxYzAgLjIuMi40LjQuNGg4LjVjLjIgMCAuNC0uMi40LS40di0yMS44YzAtLjMtLjItLjUtLjQtLjV6bTExLjItNy42aC04LjVjLS4yIDAtLjQuMi0uNC40djI5LjVjMCAuMi4yLjQuNC40aDguNWMuMiAwIC40LS4yLjQtLjR2LTI5LjVjMC0uMi0uMi0uNC0uNC0uNHptMTEuMyAwaC04LjhjLS4yIDAtLjQuMi0uNC40djUuMWMwIC4yLjIuNC40LjRoOC44Yy4yIDAgLjQtLjIuNC0uNHYtNS4xYy4xLS4yLS4xLS40LS40LS40em0tLjEgNy42aC04LjVjLS4yIDAtLjQuMi0uNC40djIxLjljMCAuMi4yLjQuNC40aDguNWMuMiAwIC40LS4yLjQtLjR2LTIxLjhjMC0uMy0uMi0uNS0uNC0uNXptMTQuMS0uNWMtNy41IDAtMTIuOCA1LjUtMTIuOCAxMS45di4xYzAgNi40IDUuMyAxMS44IDEyLjcgMTEuOCA3LjUgMCAxMi44LTUuNSAxMi44LTExLjl2LS4xYzAtNi40LTUuMy0xMS44LTEyLjctMTEuOHptMy42IDExLjljMCAyLjItMS41IDMuOS0zLjYgMy45cy0zLjctMS44LTMuNy00di0uMWMwLTIuMiAxLjUtMy45IDMuNi0zLjlzMy43IDEuOCAzLjcgNC4xek0tMjg4IDM3NmMtMTMuOCAwLTI1IDExLjItMjUgMjVzMTEuMiAyNSAyNSAyNSAyNS0xMS4yIDI1LTI1LTExLjItMjUtMjUtMjV6bTAgNDMuNGMtMTAuMiAwLTE4LjQtOC4yLTE4LjQtMTguNHM4LjItMTguNCAxOC40LTE4LjQgMTguNCA4LjIgMTguNCAxOC40LTguMiAxOC40LTE4LjQgMTguNHoiLz48Y2lyY2xlIGN4PSItMjgxLjgiIGN5PSIzOTQuOCIgcj0iNS4yIi8+PGNpcmNsZSBjeD0iLTI4MS44IiBjeT0iNDA3LjIiIHI9IjUuMiIvPjxjaXJjbGUgY3g9Ii0yOTQuMiIgY3k9IjQwNy4yIiByPSI1LjIiLz48Y2lyY2xlIGN4PSItMjk0LjIiIGN5PSIzOTQuOCIgcj0iNS4yIi8+PC9nPjwvc3ZnPg==;" vertex="1" parent="WIyWlLk6GJQsqaUBKTNV-1">
          <mxGeometry x="620" y="410" width="70" height="21.08" as="geometry" />
        </mxCell>
        <mxCell id="YoF2BPIvjC0NpefR5XAe-22" value="dialer: True" style="text;html=1;strokeColor=none;fillColor=none;align=left;verticalAlign=middle;whiteSpace=wrap;rounded=0;" vertex="1" parent="WIyWlLk6GJQsqaUBKTNV-1">
          <mxGeometry x="705" y="441.08000000000004" width="190" height="20" as="geometry" />
        </mxCell>
        <mxCell id="YoF2BPIvjC0NpefR5XAe-23" value="WorkflowSid: Auto Outbound" style="text;html=1;strokeColor=none;fillColor=none;align=left;verticalAlign=middle;whiteSpace=wrap;rounded=0;" vertex="1" parent="WIyWlLk6GJQsqaUBKTNV-1">
          <mxGeometry x="705" y="461.08000000000004" width="190" height="20" as="geometry" />
        </mxCell>
        <mxCell id="YoF2BPIvjC0NpefR5XAe-24" value="Dial Attempt &lt;br&gt;started" style="rounded=1;whiteSpace=wrap;html=1;fillColor=#d5e8d4;strokeColor=#82b366;" vertex="1" parent="WIyWlLk6GJQsqaUBKTNV-1">
          <mxGeometry x="360" y="431.08000000000004" width="120" height="60" as="geometry" />
        </mxCell>
        <mxCell id="YoF2BPIvjC0NpefR5XAe-26" value="AttemptID: XXXX" style="text;html=1;strokeColor=none;fillColor=none;align=left;verticalAlign=middle;whiteSpace=wrap;rounded=0;" vertex="1" parent="WIyWlLk6GJQsqaUBKTNV-1">
          <mxGeometry x="704" y="421.08000000000004" width="190" height="20" as="geometry" />
        </mxCell>
        <mxCell id="YoF2BPIvjC0NpefR5XAe-42" style="edgeStyle=none;rounded=0;orthogonalLoop=1;jettySize=auto;html=1;" edge="1" parent="WIyWlLk6GJQsqaUBKTNV-1" source="YoF2BPIvjC0NpefR5XAe-27" target="YoF2BPIvjC0NpefR5XAe-30">
          <mxGeometry relative="1" as="geometry" />
        </mxCell>
        <mxCell id="YoF2BPIvjC0NpefR5XAe-27" value="TaskRouter" style="shape=image;html=1;verticalAlign=top;verticalLabelPosition=bottom;labelBackgroundColor=#ffffff;imageAspect=0;aspect=fixed;image=https://cdn2.iconfinder.com/data/icons/miscellaneous-12/24/miscellaneous-56-128.png;align=left;" vertex="1" parent="WIyWlLk6GJQsqaUBKTNV-1">
          <mxGeometry x="600" y="520" width="60" height="60" as="geometry" />
        </mxCell>
        <mxCell id="YoF2BPIvjC0NpefR5XAe-28" value="WorkerSid: bot id?" style="text;html=1;strokeColor=none;fillColor=none;align=left;verticalAlign=middle;whiteSpace=wrap;rounded=0;" vertex="1" parent="WIyWlLk6GJQsqaUBKTNV-1">
          <mxGeometry x="705" y="481.08000000000004" width="190" height="20" as="geometry" />
        </mxCell>
        <mxCell id="YoF2BPIvjC0NpefR5XAe-33" style="edgeStyle=none;rounded=0;orthogonalLoop=1;jettySize=auto;html=1;" edge="1" parent="WIyWlLk6GJQsqaUBKTNV-1" source="YoF2BPIvjC0NpefR5XAe-30" target="YoF2BPIvjC0NpefR5XAe-32">
          <mxGeometry relative="1" as="geometry" />
        </mxCell>
        <mxCell id="YoF2BPIvjC0NpefR5XAe-30" value="Task Assigned" style="rounded=1;whiteSpace=wrap;html=1;fillColor=#dae8fc;strokeColor=#6c8ebf;" vertex="1" parent="WIyWlLk6GJQsqaUBKTNV-1">
          <mxGeometry x="570" y="641.08" width="120" height="60" as="geometry" />
        </mxCell>
        <mxCell id="YoF2BPIvjC0NpefR5XAe-31" value="" style="shape=image;verticalLabelPosition=bottom;labelBackgroundColor=#ffffff;verticalAlign=top;aspect=fixed;imageAspect=0;image=data:image/svg+xml,PHN2ZyB4bWxucz0iaHR0cDovL3d3dy53My5vcmcvMjAwMC9zdmciIHdpZHRoPSIxNjYuMiIgaGVpZ2h0PSI1MCIgdmlld0JveD0iLTMxMyAzNzYgMTY2LjIgNTAiPjxnIGZpbGw9IiNGMTJFNDUiPjxwYXRoIGQ9Ik0tMTk1LjkgMzg1LjhoLTguOGMtLjIgMC0uNC4yLS40LjR2NS4xYzAgLjIuMi40LjQuNGg4LjhjLjIgMCAuNC0uMi40LS40di01LjFjLjEtLjItLjEtLjQtLjQtLjR6bS0uMSA3LjZoLTE3Yy0uMiAwLS41LjItLjYuNGwtMi4yIDguMy0uMS40LTIuNi04LjljLS4xLS4yLS4zLS40LS42LS40aC02LjZjLS4yIDAtLjUuMi0uNi40bC0yLjUgOC4zLS4xLjQtLjEtLjItMS00LjEtMS4xLTQuMWMtLjEtLjItLjMtLjQtLjYtLjRILTI0NXYtNy4yYzAtLjItLjMtLjUtLjYtLjRsLTguNCAyLjZjLS4zLjEtLjQuMi0uNC40djQuNWgtMi4yYy0uMiAwLS40LjItLjQuNHY2LjRjMCAuMi4yLjQuNC40aDIuMnY3LjhjMCA1LjUgMyA4LjEgOC41IDguMSAyLjMgMCA0LjUtLjUgNi0xLjN2LTYuNmMwLS4zLS4zLS40LS41LS40LS45LjQtMS42LjUtMi40LjUtMS41IDAtMi4zLS42LTIuMy0yLjN2LTUuN2g0LjhjLjIgMCAuNC0uMi40LS40di01LjRsNi4zIDIwLjljLjEuMi4zLjQuNi40aDdjLjIgMCAuNS0uMi42LS40bDMtOS4zIDEuNSA0LjggMS40IDQuNGMuMS4yLjMuNC42LjRoN2MuMiAwIC41LS4yLjYtLjRsNi40LTIxdjIxYzAgLjIuMi40LjQuNGg4LjVjLjIgMCAuNC0uMi40LS40di0yMS44YzAtLjMtLjItLjUtLjQtLjV6bTExLjItNy42aC04LjVjLS4yIDAtLjQuMi0uNC40djI5LjVjMCAuMi4yLjQuNC40aDguNWMuMiAwIC40LS4yLjQtLjR2LTI5LjVjMC0uMi0uMi0uNC0uNC0uNHptMTEuMyAwaC04LjhjLS4yIDAtLjQuMi0uNC40djUuMWMwIC4yLjIuNC40LjRoOC44Yy4yIDAgLjQtLjIuNC0uNHYtNS4xYy4xLS4yLS4xLS40LS40LS40em0tLjEgNy42aC04LjVjLS4yIDAtLjQuMi0uNC40djIxLjljMCAuMi4yLjQuNC40aDguNWMuMiAwIC40LS4yLjQtLjR2LTIxLjhjMC0uMy0uMi0uNS0uNC0uNXptMTQuMS0uNWMtNy41IDAtMTIuOCA1LjUtMTIuOCAxMS45di4xYzAgNi40IDUuMyAxMS44IDEyLjcgMTEuOCA3LjUgMCAxMi44LTUuNSAxMi44LTExLjl2LS4xYzAtNi40LTUuMy0xMS44LTEyLjctMTEuOHptMy42IDExLjljMCAyLjItMS41IDMuOS0zLjYgMy45cy0zLjctMS44LTMuNy00di0uMWMwLTIuMiAxLjUtMy45IDMuNi0zLjlzMy43IDEuOCAzLjcgNC4xek0tMjg4IDM3NmMtMTMuOCAwLTI1IDExLjItMjUgMjVzMTEuMiAyNSAyNSAyNSAyNS0xMS4yIDI1LTI1LTExLjItMjUtMjUtMjV6bTAgNDMuNGMtMTAuMiAwLTE4LjQtOC4yLTE4LjQtMTguNHM4LjItMTguNCAxOC40LTE4LjQgMTguNCA4LjIgMTguNCAxOC40LTguMiAxOC40LTE4LjQgMTguNHoiLz48Y2lyY2xlIGN4PSItMjgxLjgiIGN5PSIzOTQuOCIgcj0iNS4yIi8+PGNpcmNsZSBjeD0iLTI4MS44IiBjeT0iNDA3LjIiIHI9IjUuMiIvPjxjaXJjbGUgY3g9Ii0yOTQuMiIgY3k9IjQwNy4yIiByPSI1LjIiLz48Y2lyY2xlIGN4PSItMjk0LjIiIGN5PSIzOTQuOCIgcj0iNS4yIi8+PC9nPjwvc3ZnPg==;" vertex="1" parent="WIyWlLk6GJQsqaUBKTNV-1">
          <mxGeometry x="640" y="620" width="70" height="21.08" as="geometry" />
        </mxCell>
        <mxCell id="YoF2BPIvjC0NpefR5XAe-34" style="edgeStyle=none;rounded=0;orthogonalLoop=1;jettySize=auto;html=1;entryX=0;entryY=0.75;entryDx=0;entryDy=0;exitX=1;exitY=0.75;exitDx=0;exitDy=0;" edge="1" parent="WIyWlLk6GJQsqaUBKTNV-1" source="YoF2BPIvjC0NpefR5XAe-32" target="YoF2BPIvjC0NpefR5XAe-30">
          <mxGeometry relative="1" as="geometry" />
        </mxCell>
        <mxCell id="YoF2BPIvjC0NpefR5XAe-35" value="Instruction: accept" style="edgeLabel;html=1;align=center;verticalAlign=middle;resizable=0;points=[];" vertex="1" connectable="0" parent="YoF2BPIvjC0NpefR5XAe-34">
          <mxGeometry x="-0.2667" relative="1" as="geometry">
            <mxPoint x="7" y="23.92" as="offset" />
          </mxGeometry>
        </mxCell>
        <mxCell id="YoF2BPIvjC0NpefR5XAe-40" style="edgeStyle=none;rounded=0;orthogonalLoop=1;jettySize=auto;html=1;entryX=0;entryY=0.5;entryDx=0;entryDy=0;" edge="1" parent="WIyWlLk6GJQsqaUBKTNV-1" source="YoF2BPIvjC0NpefR5XAe-32" target="YoF2BPIvjC0NpefR5XAe-27">
          <mxGeometry relative="1" as="geometry" />
        </mxCell>
        <mxCell id="YoF2BPIvjC0NpefR5XAe-41" value="Decrement Capacity" style="edgeLabel;html=1;align=center;verticalAlign=middle;resizable=0;points=[];" vertex="1" connectable="0" parent="YoF2BPIvjC0NpefR5XAe-40">
          <mxGeometry x="-0.312" y="2" relative="1" as="geometry">
            <mxPoint x="10.05" y="-8.16" as="offset" />
          </mxGeometry>
        </mxCell>
        <mxCell id="YoF2BPIvjC0NpefR5XAe-44" style="edgeStyle=none;rounded=0;orthogonalLoop=1;jettySize=auto;html=1;entryX=0.5;entryY=0;entryDx=0;entryDy=0;dashed=1;" edge="1" parent="WIyWlLk6GJQsqaUBKTNV-1" source="YoF2BPIvjC0NpefR5XAe-32" target="YoF2BPIvjC0NpefR5XAe-43">
          <mxGeometry relative="1" as="geometry">
            <Array as="points">
              <mxPoint x="60" y="671" />
            </Array>
          </mxGeometry>
        </mxCell>
        <mxCell id="YoF2BPIvjC0NpefR5XAe-32" value="Assignment Webhook&lt;br&gt;Queue Dial&lt;br&gt;Decrement capacity" style="rounded=1;whiteSpace=wrap;html=1;fillColor=#d5e8d4;strokeColor=#82b366;" vertex="1" parent="WIyWlLk6GJQsqaUBKTNV-1">
          <mxGeometry x="360" y="641.08" width="120" height="60" as="geometry" />
        </mxCell>
        <mxCell id="YoF2BPIvjC0NpefR5XAe-37" style="edgeStyle=none;rounded=0;orthogonalLoop=1;jettySize=auto;html=1;entryX=0;entryY=0.5;entryDx=0;entryDy=0;dashed=1;" edge="1" parent="WIyWlLk6GJQsqaUBKTNV-1" source="YoF2BPIvjC0NpefR5XAe-16" target="YoF2BPIvjC0NpefR5XAe-10">
          <mxGeometry relative="1" as="geometry">
            <Array as="points">
              <mxPoint x="300" y="600" />
              <mxPoint x="300" y="350" />
            </Array>
          </mxGeometry>
        </mxCell>
        <mxCell id="YoF2BPIvjC0NpefR5XAe-39" value="Assigns to bot based on capacity" style="text;html=1;strokeColor=none;fillColor=none;align=left;verticalAlign=middle;whiteSpace=wrap;rounded=0;" vertex="1" parent="WIyWlLk6GJQsqaUBKTNV-1">
          <mxGeometry x="705" y="540" width="190" height="20" as="geometry" />
        </mxCell>
        <mxCell id="YoF2BPIvjC0NpefR5XAe-49" style="edgeStyle=none;rounded=0;orthogonalLoop=1;jettySize=auto;html=1;" edge="1" parent="WIyWlLk6GJQsqaUBKTNV-1" source="YoF2BPIvjC0NpefR5XAe-43" target="YoF2BPIvjC0NpefR5XAe-45">
          <mxGeometry relative="1" as="geometry" />
        </mxCell>
        <mxCell id="YoF2BPIvjC0NpefR5XAe-43" value="Dial message&lt;br&gt;Received&amp;nbsp;" style="rounded=1;whiteSpace=wrap;html=1;fillColor=#d5e8d4;strokeColor=#82b366;" vertex="1" parent="WIyWlLk6GJQsqaUBKTNV-1">
          <mxGeometry y="740" width="120" height="60" as="geometry" />
        </mxCell>
        <mxCell id="YoF2BPIvjC0NpefR5XAe-48" style="edgeStyle=none;rounded=0;orthogonalLoop=1;jettySize=auto;html=1;" edge="1" parent="WIyWlLk6GJQsqaUBKTNV-1" source="YoF2BPIvjC0NpefR5XAe-45" target="YoF2BPIvjC0NpefR5XAe-46">
          <mxGeometry relative="1" as="geometry" />
        </mxCell>
        <mxCell id="YoF2BPIvjC0NpefR5XAe-45" value="Initiate Call" style="rounded=1;whiteSpace=wrap;html=1;fillColor=#d5e8d4;strokeColor=#82b366;" vertex="1" parent="WIyWlLk6GJQsqaUBKTNV-1">
          <mxGeometry y="860" width="120" height="60" as="geometry" />
        </mxCell>
        <mxCell id="YoF2BPIvjC0NpefR5XAe-51" style="edgeStyle=none;rounded=0;orthogonalLoop=1;jettySize=auto;html=1;entryX=0.5;entryY=0;entryDx=0;entryDy=0;" edge="1" parent="WIyWlLk6GJQsqaUBKTNV-1" source="YoF2BPIvjC0NpefR5XAe-46" target="YoF2BPIvjC0NpefR5XAe-54">
          <mxGeometry relative="1" as="geometry">
            <Array as="points">
              <mxPoint x="290" y="960" />
              <mxPoint x="60" y="960" />
            </Array>
          </mxGeometry>
        </mxCell>
        <mxCell id="YoF2BPIvjC0NpefR5XAe-52" value="Answered" style="edgeLabel;html=1;align=center;verticalAlign=middle;resizable=0;points=[];" vertex="1" connectable="0" parent="YoF2BPIvjC0NpefR5XAe-51">
          <mxGeometry x="0.2484" y="1" relative="1" as="geometry">
            <mxPoint x="13.85" y="-8.35" as="offset" />
          </mxGeometry>
        </mxCell>
        <mxCell id="YoF2BPIvjC0NpefR5XAe-46" value="Voice Call attempted" style="rounded=1;whiteSpace=wrap;html=1;fillColor=#dae8fc;strokeColor=#6c8ebf;" vertex="1" parent="WIyWlLk6GJQsqaUBKTNV-1">
          <mxGeometry x="230" y="860" width="120" height="60" as="geometry" />
        </mxCell>
        <mxCell id="YoF2BPIvjC0NpefR5XAe-47" value="" style="shape=image;verticalLabelPosition=bottom;labelBackgroundColor=#ffffff;verticalAlign=top;aspect=fixed;imageAspect=0;image=data:image/svg+xml,PHN2ZyB4bWxucz0iaHR0cDovL3d3dy53My5vcmcvMjAwMC9zdmciIHdpZHRoPSIxNjYuMiIgaGVpZ2h0PSI1MCIgdmlld0JveD0iLTMxMyAzNzYgMTY2LjIgNTAiPjxnIGZpbGw9IiNGMTJFNDUiPjxwYXRoIGQ9Ik0tMTk1LjkgMzg1LjhoLTguOGMtLjIgMC0uNC4yLS40LjR2NS4xYzAgLjIuMi40LjQuNGg4LjhjLjIgMCAuNC0uMi40LS40di01LjFjLjEtLjItLjEtLjQtLjQtLjR6bS0uMSA3LjZoLTE3Yy0uMiAwLS41LjItLjYuNGwtMi4yIDguMy0uMS40LTIuNi04LjljLS4xLS4yLS4zLS40LS42LS40aC02LjZjLS4yIDAtLjUuMi0uNi40bC0yLjUgOC4zLS4xLjQtLjEtLjItMS00LjEtMS4xLTQuMWMtLjEtLjItLjMtLjQtLjYtLjRILTI0NXYtNy4yYzAtLjItLjMtLjUtLjYtLjRsLTguNCAyLjZjLS4zLjEtLjQuMi0uNC40djQuNWgtMi4yYy0uMiAwLS40LjItLjQuNHY2LjRjMCAuMi4yLjQuNC40aDIuMnY3LjhjMCA1LjUgMyA4LjEgOC41IDguMSAyLjMgMCA0LjUtLjUgNi0xLjN2LTYuNmMwLS4zLS4zLS40LS41LS40LS45LjQtMS42LjUtMi40LjUtMS41IDAtMi4zLS42LTIuMy0yLjN2LTUuN2g0LjhjLjIgMCAuNC0uMi40LS40di01LjRsNi4zIDIwLjljLjEuMi4zLjQuNi40aDdjLjIgMCAuNS0uMi42LS40bDMtOS4zIDEuNSA0LjggMS40IDQuNGMuMS4yLjMuNC42LjRoN2MuMiAwIC41LS4yLjYtLjRsNi40LTIxdjIxYzAgLjIuMi40LjQuNGg4LjVjLjIgMCAuNC0uMi40LS40di0yMS44YzAtLjMtLjItLjUtLjQtLjV6bTExLjItNy42aC04LjVjLS4yIDAtLjQuMi0uNC40djI5LjVjMCAuMi4yLjQuNC40aDguNWMuMiAwIC40LS4yLjQtLjR2LTI5LjVjMC0uMi0uMi0uNC0uNC0uNHptMTEuMyAwaC04LjhjLS4yIDAtLjQuMi0uNC40djUuMWMwIC4yLjIuNC40LjRoOC44Yy4yIDAgLjQtLjIuNC0uNHYtNS4xYy4xLS4yLS4xLS40LS40LS40em0tLjEgNy42aC04LjVjLS4yIDAtLjQuMi0uNC40djIxLjljMCAuMi4yLjQuNC40aDguNWMuMiAwIC40LS4yLjQtLjR2LTIxLjhjMC0uMy0uMi0uNS0uNC0uNXptMTQuMS0uNWMtNy41IDAtMTIuOCA1LjUtMTIuOCAxMS45di4xYzAgNi40IDUuMyAxMS44IDEyLjcgMTEuOCA3LjUgMCAxMi44LTUuNSAxMi44LTExLjl2LS4xYzAtNi40LTUuMy0xMS44LTEyLjctMTEuOHptMy42IDExLjljMCAyLjItMS41IDMuOS0zLjYgMy45cy0zLjctMS44LTMuNy00di0uMWMwLTIuMiAxLjUtMy45IDMuNi0zLjlzMy43IDEuOCAzLjcgNC4xek0tMjg4IDM3NmMtMTMuOCAwLTI1IDExLjItMjUgMjVzMTEuMiAyNSAyNSAyNSAyNS0xMS4yIDI1LTI1LTExLjItMjUtMjUtMjV6bTAgNDMuNGMtMTAuMiAwLTE4LjQtOC4yLTE4LjQtMTguNHM4LjItMTguNCAxOC40LTE4LjQgMTguNCA4LjIgMTguNCAxOC40LTguMiAxOC40LTE4LjQgMTguNHoiLz48Y2lyY2xlIGN4PSItMjgxLjgiIGN5PSIzOTQuOCIgcj0iNS4yIi8+PGNpcmNsZSBjeD0iLTI4MS44IiBjeT0iNDA3LjIiIHI9IjUuMiIvPjxjaXJjbGUgY3g9Ii0yOTQuMiIgY3k9IjQwNy4yIiByPSI1LjIiLz48Y2lyY2xlIGN4PSItMjk0LjIiIGN5PSIzOTQuOCIgcj0iNS4yIi8+PC9nPjwvc3ZnPg==;" vertex="1" parent="WIyWlLk6GJQsqaUBKTNV-1">
          <mxGeometry x="280" y="838.92" width="70" height="21.08" as="geometry" />
        </mxCell>
        <mxCell id="YoF2BPIvjC0NpefR5XAe-53" value="AMD enabled" style="text;html=1;strokeColor=none;fillColor=none;align=left;verticalAlign=middle;whiteSpace=wrap;rounded=0;" vertex="1" parent="WIyWlLk6GJQsqaUBKTNV-1">
          <mxGeometry x="360" y="860" width="190" height="20" as="geometry" />
        </mxCell>
        <mxCell id="YoF2BPIvjC0NpefR5XAe-56" value="No" style="edgeStyle=none;rounded=0;orthogonalLoop=1;jettySize=auto;html=1;entryX=0;entryY=0.5;entryDx=0;entryDy=0;" edge="1" parent="WIyWlLk6GJQsqaUBKTNV-1" source="YoF2BPIvjC0NpefR5XAe-54" target="YoF2BPIvjC0NpefR5XAe-57">
          <mxGeometry relative="1" as="geometry">
            <mxPoint x="180" y="1030" as="targetPoint" />
          </mxGeometry>
        </mxCell>
        <mxCell id="YoF2BPIvjC0NpefR5XAe-60" style="edgeStyle=none;rounded=0;orthogonalLoop=1;jettySize=auto;html=1;" edge="1" parent="WIyWlLk6GJQsqaUBKTNV-1" source="YoF2BPIvjC0NpefR5XAe-54" target="YoF2BPIvjC0NpefR5XAe-59">
          <mxGeometry relative="1" as="geometry" />
        </mxCell>
        <mxCell id="YoF2BPIvjC0NpefR5XAe-104" style="edgeStyle=none;rounded=0;orthogonalLoop=1;jettySize=auto;html=1;entryX=0;entryY=0.5;entryDx=0;entryDy=0;" edge="1" parent="WIyWlLk6GJQsqaUBKTNV-1" source="YoF2BPIvjC0NpefR5XAe-54" target="YoF2BPIvjC0NpefR5XAe-78">
          <mxGeometry relative="1" as="geometry">
            <Array as="points">
              <mxPoint x="-60" y="1030" />
              <mxPoint x="-60" y="1290" />
            </Array>
          </mxGeometry>
        </mxCell>
        <mxCell id="YoF2BPIvjC0NpefR5XAe-105" value="No" style="edgeLabel;html=1;align=center;verticalAlign=middle;resizable=0;points=[];" vertex="1" connectable="0" parent="YoF2BPIvjC0NpefR5XAe-104">
          <mxGeometry x="-0.73" y="-1" relative="1" as="geometry">
            <mxPoint as="offset" />
          </mxGeometry>
        </mxCell>
        <mxCell id="YoF2BPIvjC0NpefR5XAe-54" value="Human?" style="rhombus;whiteSpace=wrap;html=1;align=center;fillColor=#d5e8d4;strokeColor=#82b366;" vertex="1" parent="WIyWlLk6GJQsqaUBKTNV-1">
          <mxGeometry x="20" y="990" width="80" height="80" as="geometry" />
        </mxCell>
        <mxCell id="YoF2BPIvjC0NpefR5XAe-57" value="Complete bot task" style="rounded=1;whiteSpace=wrap;html=1;fillColor=#dae8fc;strokeColor=#6c8ebf;" vertex="1" parent="WIyWlLk6GJQsqaUBKTNV-1">
          <mxGeometry x="230" y="1001.08" width="120" height="60" as="geometry" />
        </mxCell>
        <mxCell id="YoF2BPIvjC0NpefR5XAe-58" value="" style="shape=image;verticalLabelPosition=bottom;labelBackgroundColor=#ffffff;verticalAlign=top;aspect=fixed;imageAspect=0;image=data:image/svg+xml,PHN2ZyB4bWxucz0iaHR0cDovL3d3dy53My5vcmcvMjAwMC9zdmciIHdpZHRoPSIxNjYuMiIgaGVpZ2h0PSI1MCIgdmlld0JveD0iLTMxMyAzNzYgMTY2LjIgNTAiPjxnIGZpbGw9IiNGMTJFNDUiPjxwYXRoIGQ9Ik0tMTk1LjkgMzg1LjhoLTguOGMtLjIgMC0uNC4yLS40LjR2NS4xYzAgLjIuMi40LjQuNGg4LjhjLjIgMCAuNC0uMi40LS40di01LjFjLjEtLjItLjEtLjQtLjQtLjR6bS0uMSA3LjZoLTE3Yy0uMiAwLS41LjItLjYuNGwtMi4yIDguMy0uMS40LTIuNi04LjljLS4xLS4yLS4zLS40LS42LS40aC02LjZjLS4yIDAtLjUuMi0uNi40bC0yLjUgOC4zLS4xLjQtLjEtLjItMS00LjEtMS4xLTQuMWMtLjEtLjItLjMtLjQtLjYtLjRILTI0NXYtNy4yYzAtLjItLjMtLjUtLjYtLjRsLTguNCAyLjZjLS4zLjEtLjQuMi0uNC40djQuNWgtMi4yYy0uMiAwLS40LjItLjQuNHY2LjRjMCAuMi4yLjQuNC40aDIuMnY3LjhjMCA1LjUgMyA4LjEgOC41IDguMSAyLjMgMCA0LjUtLjUgNi0xLjN2LTYuNmMwLS4zLS4zLS40LS41LS40LS45LjQtMS42LjUtMi40LjUtMS41IDAtMi4zLS42LTIuMy0yLjN2LTUuN2g0LjhjLjIgMCAuNC0uMi40LS40di01LjRsNi4zIDIwLjljLjEuMi4zLjQuNi40aDdjLjIgMCAuNS0uMi42LS40bDMtOS4zIDEuNSA0LjggMS40IDQuNGMuMS4yLjMuNC42LjRoN2MuMiAwIC41LS4yLjYtLjRsNi40LTIxdjIxYzAgLjIuMi40LjQuNGg4LjVjLjIgMCAuNC0uMi40LS40di0yMS44YzAtLjMtLjItLjUtLjQtLjV6bTExLjItNy42aC04LjVjLS4yIDAtLjQuMi0uNC40djI5LjVjMCAuMi4yLjQuNC40aDguNWMuMiAwIC40LS4yLjQtLjR2LTI5LjVjMC0uMi0uMi0uNC0uNC0uNHptMTEuMyAwaC04LjhjLS4yIDAtLjQuMi0uNC40djUuMWMwIC4yLjIuNC40LjRoOC44Yy4yIDAgLjQtLjIuNC0uNHYtNS4xYy4xLS4yLS4xLS40LS40LS40em0tLjEgNy42aC04LjVjLS4yIDAtLjQuMi0uNC40djIxLjljMCAuMi4yLjQuNC40aDguNWMuMiAwIC40LS4yLjQtLjR2LTIxLjhjMC0uMy0uMi0uNS0uNC0uNXptMTQuMS0uNWMtNy41IDAtMTIuOCA1LjUtMTIuOCAxMS45di4xYzAgNi40IDUuMyAxMS44IDEyLjcgMTEuOCA3LjUgMCAxMi44LTUuNSAxMi44LTExLjl2LS4xYzAtNi40LTUuMy0xMS44LTEyLjctMTEuOHptMy42IDExLjljMCAyLjItMS41IDMuOS0zLjYgMy45cy0zLjctMS44LTMuNy00di0uMWMwLTIuMiAxLjUtMy45IDMuNi0zLjlzMy43IDEuOCAzLjcgNC4xek0tMjg4IDM3NmMtMTMuOCAwLTI1IDExLjItMjUgMjVzMTEuMiAyNSAyNSAyNSAyNS0xMS4yIDI1LTI1LTExLjItMjUtMjUtMjV6bTAgNDMuNGMtMTAuMiAwLTE4LjQtOC4yLTE4LjQtMTguNHM4LjItMTguNCAxOC40LTE4LjQgMTguNCA4LjIgMTguNCAxOC40LTguMiAxOC40LTE4LjQgMTguNHoiLz48Y2lyY2xlIGN4PSItMjgxLjgiIGN5PSIzOTQuOCIgcj0iNS4yIi8+PGNpcmNsZSBjeD0iLTI4MS44IiBjeT0iNDA3LjIiIHI9IjUuMiIvPjxjaXJjbGUgY3g9Ii0yOTQuMiIgY3k9IjQwNy4yIiByPSI1LjIiLz48Y2lyY2xlIGN4PSItMjk0LjIiIGN5PSIzOTQuOCIgcj0iNS4yIi8+PC9nPjwvc3ZnPg==;" vertex="1" parent="WIyWlLk6GJQsqaUBKTNV-1">
          <mxGeometry x="280" y="980" width="70" height="21.08" as="geometry" />
        </mxCell>
        <mxCell id="YoF2BPIvjC0NpefR5XAe-63" style="edgeStyle=none;rounded=0;orthogonalLoop=1;jettySize=auto;html=1;entryX=0;entryY=1;entryDx=0;entryDy=0;" edge="1" parent="WIyWlLk6GJQsqaUBKTNV-1" source="YoF2BPIvjC0NpefR5XAe-59" target="YoF2BPIvjC0NpefR5XAe-57">
          <mxGeometry relative="1" as="geometry" />
        </mxCell>
        <mxCell id="YoF2BPIvjC0NpefR5XAe-64" style="edgeStyle=none;rounded=0;orthogonalLoop=1;jettySize=auto;html=1;" edge="1" parent="WIyWlLk6GJQsqaUBKTNV-1" source="YoF2BPIvjC0NpefR5XAe-59" target="YoF2BPIvjC0NpefR5XAe-61">
          <mxGeometry relative="1" as="geometry" />
        </mxCell>
        <mxCell id="YoF2BPIvjC0NpefR5XAe-59" value="Enqueue Call&lt;br&gt;Twiml" style="rounded=1;whiteSpace=wrap;html=1;fillColor=#d5e8d4;strokeColor=#82b366;" vertex="1" parent="WIyWlLk6GJQsqaUBKTNV-1">
          <mxGeometry y="1120" width="120" height="60" as="geometry" />
        </mxCell>
        <mxCell id="YoF2BPIvjC0NpefR5XAe-67" style="edgeStyle=none;rounded=0;orthogonalLoop=1;jettySize=auto;html=1;" edge="1" parent="WIyWlLk6GJQsqaUBKTNV-1" source="YoF2BPIvjC0NpefR5XAe-61" target="YoF2BPIvjC0NpefR5XAe-65">
          <mxGeometry relative="1" as="geometry" />
        </mxCell>
        <mxCell id="YoF2BPIvjC0NpefR5XAe-61" value="Enqueue Call" style="rounded=1;whiteSpace=wrap;html=1;fillColor=#dae8fc;strokeColor=#6c8ebf;" vertex="1" parent="WIyWlLk6GJQsqaUBKTNV-1">
          <mxGeometry x="230" y="1120" width="120" height="60" as="geometry" />
        </mxCell>
        <mxCell id="YoF2BPIvjC0NpefR5XAe-62" value="" style="shape=image;verticalLabelPosition=bottom;labelBackgroundColor=#ffffff;verticalAlign=top;aspect=fixed;imageAspect=0;image=data:image/svg+xml,PHN2ZyB4bWxucz0iaHR0cDovL3d3dy53My5vcmcvMjAwMC9zdmciIHdpZHRoPSIxNjYuMiIgaGVpZ2h0PSI1MCIgdmlld0JveD0iLTMxMyAzNzYgMTY2LjIgNTAiPjxnIGZpbGw9IiNGMTJFNDUiPjxwYXRoIGQ9Ik0tMTk1LjkgMzg1LjhoLTguOGMtLjIgMC0uNC4yLS40LjR2NS4xYzAgLjIuMi40LjQuNGg4LjhjLjIgMCAuNC0uMi40LS40di01LjFjLjEtLjItLjEtLjQtLjQtLjR6bS0uMSA3LjZoLTE3Yy0uMiAwLS41LjItLjYuNGwtMi4yIDguMy0uMS40LTIuNi04LjljLS4xLS4yLS4zLS40LS42LS40aC02LjZjLS4yIDAtLjUuMi0uNi40bC0yLjUgOC4zLS4xLjQtLjEtLjItMS00LjEtMS4xLTQuMWMtLjEtLjItLjMtLjQtLjYtLjRILTI0NXYtNy4yYzAtLjItLjMtLjUtLjYtLjRsLTguNCAyLjZjLS4zLjEtLjQuMi0uNC40djQuNWgtMi4yYy0uMiAwLS40LjItLjQuNHY2LjRjMCAuMi4yLjQuNC40aDIuMnY3LjhjMCA1LjUgMyA4LjEgOC41IDguMSAyLjMgMCA0LjUtLjUgNi0xLjN2LTYuNmMwLS4zLS4zLS40LS41LS40LS45LjQtMS42LjUtMi40LjUtMS41IDAtMi4zLS42LTIuMy0yLjN2LTUuN2g0LjhjLjIgMCAuNC0uMi40LS40di01LjRsNi4zIDIwLjljLjEuMi4zLjQuNi40aDdjLjIgMCAuNS0uMi42LS40bDMtOS4zIDEuNSA0LjggMS40IDQuNGMuMS4yLjMuNC42LjRoN2MuMiAwIC41LS4yLjYtLjRsNi40LTIxdjIxYzAgLjIuMi40LjQuNGg4LjVjLjIgMCAuNC0uMi40LS40di0yMS44YzAtLjMtLjItLjUtLjQtLjV6bTExLjItNy42aC04LjVjLS4yIDAtLjQuMi0uNC40djI5LjVjMCAuMi4yLjQuNC40aDguNWMuMiAwIC40LS4yLjQtLjR2LTI5LjVjMC0uMi0uMi0uNC0uNC0uNHptMTEuMyAwaC04LjhjLS4yIDAtLjQuMi0uNC40djUuMWMwIC4yLjIuNC40LjRoOC44Yy4yIDAgLjQtLjIuNC0uNHYtNS4xYy4xLS4yLS4xLS40LS40LS40em0tLjEgNy42aC04LjVjLS4yIDAtLjQuMi0uNC40djIxLjljMCAuMi4yLjQuNC40aDguNWMuMiAwIC40LS4yLjQtLjR2LTIxLjhjMC0uMy0uMi0uNS0uNC0uNXptMTQuMS0uNWMtNy41IDAtMTIuOCA1LjUtMTIuOCAxMS45di4xYzAgNi40IDUuMyAxMS44IDEyLjcgMTEuOCA3LjUgMCAxMi44LTUuNSAxMi44LTExLjl2LS4xYzAtNi40LTUuMy0xMS44LTEyLjctMTEuOHptMy42IDExLjljMCAyLjItMS41IDMuOS0zLjYgMy45cy0zLjctMS44LTMuNy00di0uMWMwLTIuMiAxLjUtMy45IDMuNi0zLjlzMy43IDEuOCAzLjcgNC4xek0tMjg4IDM3NmMtMTMuOCAwLTI1IDExLjItMjUgMjVzMTEuMiAyNSAyNSAyNSAyNS0xMS4yIDI1LTI1LTExLjItMjUtMjUtMjV6bTAgNDMuNGMtMTAuMiAwLTE4LjQtOC4yLTE4LjQtMTguNHM4LjItMTguNCAxOC40LTE4LjQgMTguNCA4LjIgMTguNCAxOC40LTguMiAxOC40LTE4LjQgMTguNHoiLz48Y2lyY2xlIGN4PSItMjgxLjgiIGN5PSIzOTQuOCIgcj0iNS4yIi8+PGNpcmNsZSBjeD0iLTI4MS44IiBjeT0iNDA3LjIiIHI9IjUuMiIvPjxjaXJjbGUgY3g9Ii0yOTQuMiIgY3k9IjQwNy4yIiByPSI1LjIiLz48Y2lyY2xlIGN4PSItMjk0LjIiIGN5PSIzOTQuOCIgcj0iNS4yIi8+PC9nPjwvc3ZnPg==;" vertex="1" parent="WIyWlLk6GJQsqaUBKTNV-1">
          <mxGeometry x="280" y="1098.92" width="70" height="21.08" as="geometry" />
        </mxCell>
        <mxCell id="YoF2BPIvjC0NpefR5XAe-68" value="" style="group" vertex="1" connectable="0" parent="WIyWlLk6GJQsqaUBKTNV-1">
          <mxGeometry x="430" y="1098.92" width="120" height="81.07999999999993" as="geometry" />
        </mxCell>
        <mxCell id="YoF2BPIvjC0NpefR5XAe-65" value="Agent Answers&lt;br&gt;Automatically" style="rounded=1;whiteSpace=wrap;html=1;fillColor=#dae8fc;strokeColor=#6c8ebf;" vertex="1" parent="YoF2BPIvjC0NpefR5XAe-68">
          <mxGeometry y="21.079999999999927" width="120" height="60" as="geometry" />
        </mxCell>
        <mxCell id="YoF2BPIvjC0NpefR5XAe-66" value="" style="shape=image;verticalLabelPosition=bottom;labelBackgroundColor=#ffffff;verticalAlign=top;aspect=fixed;imageAspect=0;image=data:image/svg+xml,PHN2ZyB4bWxucz0iaHR0cDovL3d3dy53My5vcmcvMjAwMC9zdmciIHdpZHRoPSIxNjYuMiIgaGVpZ2h0PSI1MCIgdmlld0JveD0iLTMxMyAzNzYgMTY2LjIgNTAiPjxnIGZpbGw9IiNGMTJFNDUiPjxwYXRoIGQ9Ik0tMTk1LjkgMzg1LjhoLTguOGMtLjIgMC0uNC4yLS40LjR2NS4xYzAgLjIuMi40LjQuNGg4LjhjLjIgMCAuNC0uMi40LS40di01LjFjLjEtLjItLjEtLjQtLjQtLjR6bS0uMSA3LjZoLTE3Yy0uMiAwLS41LjItLjYuNGwtMi4yIDguMy0uMS40LTIuNi04LjljLS4xLS4yLS4zLS40LS42LS40aC02LjZjLS4yIDAtLjUuMi0uNi40bC0yLjUgOC4zLS4xLjQtLjEtLjItMS00LjEtMS4xLTQuMWMtLjEtLjItLjMtLjQtLjYtLjRILTI0NXYtNy4yYzAtLjItLjMtLjUtLjYtLjRsLTguNCAyLjZjLS4zLjEtLjQuMi0uNC40djQuNWgtMi4yYy0uMiAwLS40LjItLjQuNHY2LjRjMCAuMi4yLjQuNC40aDIuMnY3LjhjMCA1LjUgMyA4LjEgOC41IDguMSAyLjMgMCA0LjUtLjUgNi0xLjN2LTYuNmMwLS4zLS4zLS40LS41LS40LS45LjQtMS42LjUtMi40LjUtMS41IDAtMi4zLS42LTIuMy0yLjN2LTUuN2g0LjhjLjIgMCAuNC0uMi40LS40di01LjRsNi4zIDIwLjljLjEuMi4zLjQuNi40aDdjLjIgMCAuNS0uMi42LS40bDMtOS4zIDEuNSA0LjggMS40IDQuNGMuMS4yLjMuNC42LjRoN2MuMiAwIC41LS4yLjYtLjRsNi40LTIxdjIxYzAgLjIuMi40LjQuNGg4LjVjLjIgMCAuNC0uMi40LS40di0yMS44YzAtLjMtLjItLjUtLjQtLjV6bTExLjItNy42aC04LjVjLS4yIDAtLjQuMi0uNC40djI5LjVjMCAuMi4yLjQuNC40aDguNWMuMiAwIC40LS4yLjQtLjR2LTI5LjVjMC0uMi0uMi0uNC0uNC0uNHptMTEuMyAwaC04LjhjLS4yIDAtLjQuMi0uNC40djUuMWMwIC4yLjIuNC40LjRoOC44Yy4yIDAgLjQtLjIuNC0uNHYtNS4xYy4xLS4yLS4xLS40LS40LS40em0tLjEgNy42aC04LjVjLS4yIDAtLjQuMi0uNC40djIxLjljMCAuMi4yLjQuNC40aDguNWMuMiAwIC40LS4yLjQtLjR2LTIxLjhjMC0uMy0uMi0uNS0uNC0uNXptMTQuMS0uNWMtNy41IDAtMTIuOCA1LjUtMTIuOCAxMS45di4xYzAgNi40IDUuMyAxMS44IDEyLjcgMTEuOCA3LjUgMCAxMi44LTUuNSAxMi44LTExLjl2LS4xYzAtNi40LTUuMy0xMS44LTEyLjctMTEuOHptMy42IDExLjljMCAyLjItMS41IDMuOS0zLjYgMy45cy0zLjctMS44LTMuNy00di0uMWMwLTIuMiAxLjUtMy45IDMuNi0zLjlzMy43IDEuOCAzLjcgNC4xek0tMjg4IDM3NmMtMTMuOCAwLTI1IDExLjItMjUgMjVzMTEuMiAyNSAyNSAyNSAyNS0xMS4yIDI1LTI1LTExLjItMjUtMjUtMjV6bTAgNDMuNGMtMTAuMiAwLTE4LjQtOC4yLTE4LjQtMTguNHM4LjItMTguNCAxOC40LTE4LjQgMTguNCA4LjIgMTguNCAxOC40LTguMiAxOC40LTE4LjQgMTguNHoiLz48Y2lyY2xlIGN4PSItMjgxLjgiIGN5PSIzOTQuOCIgcj0iNS4yIi8+PGNpcmNsZSBjeD0iLTI4MS44IiBjeT0iNDA3LjIiIHI9IjUuMiIvPjxjaXJjbGUgY3g9Ii0yOTQuMiIgY3k9IjQwNy4yIiByPSI1LjIiLz48Y2lyY2xlIGN4PSItMjk0LjIiIGN5PSIzOTQuOCIgcj0iNS4yIi8+PC9nPjwvc3ZnPg==;" vertex="1" parent="YoF2BPIvjC0NpefR5XAe-68">
          <mxGeometry x="50" width="70" height="21.08" as="geometry" />
        </mxCell>
        <mxCell id="YoF2BPIvjC0NpefR5XAe-69" value="" style="group" vertex="1" connectable="0" parent="WIyWlLk6GJQsqaUBKTNV-1">
          <mxGeometry x="600" y="1100" width="120" height="81.07999999999993" as="geometry" />
        </mxCell>
        <mxCell id="YoF2BPIvjC0NpefR5XAe-70" value="Call Ends" style="rounded=1;whiteSpace=wrap;html=1;fillColor=#dae8fc;strokeColor=#6c8ebf;" vertex="1" parent="YoF2BPIvjC0NpefR5XAe-69">
          <mxGeometry y="21.079999999999927" width="120" height="60" as="geometry" />
        </mxCell>
        <mxCell id="YoF2BPIvjC0NpefR5XAe-71" value="" style="shape=image;verticalLabelPosition=bottom;labelBackgroundColor=#ffffff;verticalAlign=top;aspect=fixed;imageAspect=0;image=data:image/svg+xml,PHN2ZyB4bWxucz0iaHR0cDovL3d3dy53My5vcmcvMjAwMC9zdmciIHdpZHRoPSIxNjYuMiIgaGVpZ2h0PSI1MCIgdmlld0JveD0iLTMxMyAzNzYgMTY2LjIgNTAiPjxnIGZpbGw9IiNGMTJFNDUiPjxwYXRoIGQ9Ik0tMTk1LjkgMzg1LjhoLTguOGMtLjIgMC0uNC4yLS40LjR2NS4xYzAgLjIuMi40LjQuNGg4LjhjLjIgMCAuNC0uMi40LS40di01LjFjLjEtLjItLjEtLjQtLjQtLjR6bS0uMSA3LjZoLTE3Yy0uMiAwLS41LjItLjYuNGwtMi4yIDguMy0uMS40LTIuNi04LjljLS4xLS4yLS4zLS40LS42LS40aC02LjZjLS4yIDAtLjUuMi0uNi40bC0yLjUgOC4zLS4xLjQtLjEtLjItMS00LjEtMS4xLTQuMWMtLjEtLjItLjMtLjQtLjYtLjRILTI0NXYtNy4yYzAtLjItLjMtLjUtLjYtLjRsLTguNCAyLjZjLS4zLjEtLjQuMi0uNC40djQuNWgtMi4yYy0uMiAwLS40LjItLjQuNHY2LjRjMCAuMi4yLjQuNC40aDIuMnY3LjhjMCA1LjUgMyA4LjEgOC41IDguMSAyLjMgMCA0LjUtLjUgNi0xLjN2LTYuNmMwLS4zLS4zLS40LS41LS40LS45LjQtMS42LjUtMi40LjUtMS41IDAtMi4zLS42LTIuMy0yLjN2LTUuN2g0LjhjLjIgMCAuNC0uMi40LS40di01LjRsNi4zIDIwLjljLjEuMi4zLjQuNi40aDdjLjIgMCAuNS0uMi42LS40bDMtOS4zIDEuNSA0LjggMS40IDQuNGMuMS4yLjMuNC42LjRoN2MuMiAwIC41LS4yLjYtLjRsNi40LTIxdjIxYzAgLjIuMi40LjQuNGg4LjVjLjIgMCAuNC0uMi40LS40di0yMS44YzAtLjMtLjItLjUtLjQtLjV6bTExLjItNy42aC04LjVjLS4yIDAtLjQuMi0uNC40djI5LjVjMCAuMi4yLjQuNC40aDguNWMuMiAwIC40LS4yLjQtLjR2LTI5LjVjMC0uMi0uMi0uNC0uNC0uNHptMTEuMyAwaC04LjhjLS4yIDAtLjQuMi0uNC40djUuMWMwIC4yLjIuNC40LjRoOC44Yy4yIDAgLjQtLjIuNC0uNHYtNS4xYy4xLS4yLS4xLS40LS40LS40em0tLjEgNy42aC04LjVjLS4yIDAtLjQuMi0uNC40djIxLjljMCAuMi4yLjQuNC40aDguNWMuMiAwIC40LS4yLjQtLjR2LTIxLjhjMC0uMy0uMi0uNS0uNC0uNXptMTQuMS0uNWMtNy41IDAtMTIuOCA1LjUtMTIuOCAxMS45di4xYzAgNi40IDUuMyAxMS44IDEyLjcgMTEuOCA3LjUgMCAxMi44LTUuNSAxMi44LTExLjl2LS4xYzAtNi40LTUuMy0xMS44LTEyLjctMTEuOHptMy42IDExLjljMCAyLjItMS41IDMuOS0zLjYgMy45cy0zLjctMS44LTMuNy00di0uMWMwLTIuMiAxLjUtMy45IDMuNi0zLjlzMy43IDEuOCAzLjcgNC4xek0tMjg4IDM3NmMtMTMuOCAwLTI1IDExLjItMjUgMjVzMTEuMiAyNSAyNSAyNSAyNS0xMS4yIDI1LTI1LTExLjItMjUtMjUtMjV6bTAgNDMuNGMtMTAuMiAwLTE4LjQtOC4yLTE4LjQtMTguNHM4LjItMTguNCAxOC40LTE4LjQgMTguNCA4LjIgMTguNCAxOC40LTguMiAxOC40LTE4LjQgMTguNHoiLz48Y2lyY2xlIGN4PSItMjgxLjgiIGN5PSIzOTQuOCIgcj0iNS4yIi8+PGNpcmNsZSBjeD0iLTI4MS44IiBjeT0iNDA3LjIiIHI9IjUuMiIvPjxjaXJjbGUgY3g9Ii0yOTQuMiIgY3k9IjQwNy4yIiByPSI1LjIiLz48Y2lyY2xlIGN4PSItMjk0LjIiIGN5PSIzOTQuOCIgcj0iNS4yIi8+PC9nPjwvc3ZnPg==;" vertex="1" parent="YoF2BPIvjC0NpefR5XAe-69">
          <mxGeometry x="50" width="70" height="21.08" as="geometry" />
        </mxCell>
        <mxCell id="YoF2BPIvjC0NpefR5XAe-72" style="edgeStyle=none;rounded=0;orthogonalLoop=1;jettySize=auto;html=1;" edge="1" parent="WIyWlLk6GJQsqaUBKTNV-1" source="YoF2BPIvjC0NpefR5XAe-65" target="YoF2BPIvjC0NpefR5XAe-70">
          <mxGeometry relative="1" as="geometry" />
        </mxCell>
        <mxCell id="YoF2BPIvjC0NpefR5XAe-73" value="" style="group" vertex="1" connectable="0" parent="WIyWlLk6GJQsqaUBKTNV-1">
          <mxGeometry x="800" y="1098.92" width="120" height="81.07999999999993" as="geometry" />
        </mxCell>
        <mxCell id="YoF2BPIvjC0NpefR5XAe-74" value="Call Completes" style="rounded=1;whiteSpace=wrap;html=1;fillColor=#dae8fc;strokeColor=#6c8ebf;" vertex="1" parent="YoF2BPIvjC0NpefR5XAe-73">
          <mxGeometry y="21.079999999999927" width="120" height="60" as="geometry" />
        </mxCell>
        <mxCell id="YoF2BPIvjC0NpefR5XAe-75" value="" style="shape=image;verticalLabelPosition=bottom;labelBackgroundColor=#ffffff;verticalAlign=top;aspect=fixed;imageAspect=0;image=data:image/svg+xml,PHN2ZyB4bWxucz0iaHR0cDovL3d3dy53My5vcmcvMjAwMC9zdmciIHdpZHRoPSIxNjYuMiIgaGVpZ2h0PSI1MCIgdmlld0JveD0iLTMxMyAzNzYgMTY2LjIgNTAiPjxnIGZpbGw9IiNGMTJFNDUiPjxwYXRoIGQ9Ik0tMTk1LjkgMzg1LjhoLTguOGMtLjIgMC0uNC4yLS40LjR2NS4xYzAgLjIuMi40LjQuNGg4LjhjLjIgMCAuNC0uMi40LS40di01LjFjLjEtLjItLjEtLjQtLjQtLjR6bS0uMSA3LjZoLTE3Yy0uMiAwLS41LjItLjYuNGwtMi4yIDguMy0uMS40LTIuNi04LjljLS4xLS4yLS4zLS40LS42LS40aC02LjZjLS4yIDAtLjUuMi0uNi40bC0yLjUgOC4zLS4xLjQtLjEtLjItMS00LjEtMS4xLTQuMWMtLjEtLjItLjMtLjQtLjYtLjRILTI0NXYtNy4yYzAtLjItLjMtLjUtLjYtLjRsLTguNCAyLjZjLS4zLjEtLjQuMi0uNC40djQuNWgtMi4yYy0uMiAwLS40LjItLjQuNHY2LjRjMCAuMi4yLjQuNC40aDIuMnY3LjhjMCA1LjUgMyA4LjEgOC41IDguMSAyLjMgMCA0LjUtLjUgNi0xLjN2LTYuNmMwLS4zLS4zLS40LS41LS40LS45LjQtMS42LjUtMi40LjUtMS41IDAtMi4zLS42LTIuMy0yLjN2LTUuN2g0LjhjLjIgMCAuNC0uMi40LS40di01LjRsNi4zIDIwLjljLjEuMi4zLjQuNi40aDdjLjIgMCAuNS0uMi42LS40bDMtOS4zIDEuNSA0LjggMS40IDQuNGMuMS4yLjMuNC42LjRoN2MuMiAwIC41LS4yLjYtLjRsNi40LTIxdjIxYzAgLjIuMi40LjQuNGg4LjVjLjIgMCAuNC0uMi40LS40di0yMS44YzAtLjMtLjItLjUtLjQtLjV6bTExLjItNy42aC04LjVjLS4yIDAtLjQuMi0uNC40djI5LjVjMCAuMi4yLjQuNC40aDguNWMuMiAwIC40LS4yLjQtLjR2LTI5LjVjMC0uMi0uMi0uNC0uNC0uNHptMTEuMyAwaC04LjhjLS4yIDAtLjQuMi0uNC40djUuMWMwIC4yLjIuNC40LjRoOC44Yy4yIDAgLjQtLjIuNC0uNHYtNS4xYy4xLS4yLS4xLS40LS40LS40em0tLjEgNy42aC04LjVjLS4yIDAtLjQuMi0uNC40djIxLjljMCAuMi4yLjQuNC40aDguNWMuMiAwIC40LS4yLjQtLjR2LTIxLjhjMC0uMy0uMi0uNS0uNC0uNXptMTQuMS0uNWMtNy41IDAtMTIuOCA1LjUtMTIuOCAxMS45di4xYzAgNi40IDUuMyAxMS44IDEyLjcgMTEuOCA3LjUgMCAxMi44LTUuNSAxMi44LTExLjl2LS4xYzAtNi40LTUuMy0xMS44LTEyLjctMTEuOHptMy42IDExLjljMCAyLjItMS41IDMuOS0zLjYgMy45cy0zLjctMS44LTMuNy00di0uMWMwLTIuMiAxLjUtMy45IDMuNi0zLjlzMy43IDEuOCAzLjcgNC4xek0tMjg4IDM3NmMtMTMuOCAwLTI1IDExLjItMjUgMjVzMTEuMiAyNSAyNSAyNSAyNS0xMS4yIDI1LTI1LTExLjItMjUtMjUtMjV6bTAgNDMuNGMtMTAuMiAwLTE4LjQtOC4yLTE4LjQtMTguNHM4LjItMTguNCAxOC40LTE4LjQgMTguNCA4LjIgMTguNCAxOC40LTguMiAxOC40LTE4LjQgMTguNHoiLz48Y2lyY2xlIGN4PSItMjgxLjgiIGN5PSIzOTQuOCIgcj0iNS4yIi8+PGNpcmNsZSBjeD0iLTI4MS44IiBjeT0iNDA3LjIiIHI9IjUuMiIvPjxjaXJjbGUgY3g9Ii0yOTQuMiIgY3k9IjQwNy4yIiByPSI1LjIiLz48Y2lyY2xlIGN4PSItMjk0LjIiIGN5PSIzOTQuOCIgcj0iNS4yIi8+PC9nPjwvc3ZnPg==;" vertex="1" parent="YoF2BPIvjC0NpefR5XAe-73">
          <mxGeometry x="50" width="70" height="21.08" as="geometry" />
        </mxCell>
        <mxCell id="YoF2BPIvjC0NpefR5XAe-76" style="edgeStyle=none;rounded=0;orthogonalLoop=1;jettySize=auto;html=1;" edge="1" parent="WIyWlLk6GJQsqaUBKTNV-1" source="YoF2BPIvjC0NpefR5XAe-70" target="YoF2BPIvjC0NpefR5XAe-74">
          <mxGeometry relative="1" as="geometry" />
        </mxCell>
        <mxCell id="YoF2BPIvjC0NpefR5XAe-77" value="Wrap-up" style="edgeLabel;html=1;align=center;verticalAlign=middle;resizable=0;points=[];" vertex="1" connectable="0" parent="YoF2BPIvjC0NpefR5XAe-76">
          <mxGeometry x="-0.0251" relative="1" as="geometry">
            <mxPoint as="offset" />
          </mxGeometry>
        </mxCell>
        <mxCell id="YoF2BPIvjC0NpefR5XAe-81" style="edgeStyle=none;rounded=0;orthogonalLoop=1;jettySize=auto;html=1;dashed=1;" edge="1" parent="WIyWlLk6GJQsqaUBKTNV-1" source="YoF2BPIvjC0NpefR5XAe-78" target="YoF2BPIvjC0NpefR5XAe-80">
          <mxGeometry relative="1" as="geometry" />
        </mxCell>
        <mxCell id="YoF2BPIvjC0NpefR5XAe-78" value="Queue Capacity Event" style="rounded=1;whiteSpace=wrap;html=1;fillColor=#d5e8d4;strokeColor=#82b366;" vertex="1" parent="WIyWlLk6GJQsqaUBKTNV-1">
          <mxGeometry y="1260" width="120" height="60" as="geometry" />
        </mxCell>
        <mxCell id="YoF2BPIvjC0NpefR5XAe-79" style="edgeStyle=none;rounded=0;orthogonalLoop=1;jettySize=auto;html=1;entryX=0.5;entryY=0;entryDx=0;entryDy=0;" edge="1" parent="WIyWlLk6GJQsqaUBKTNV-1" source="YoF2BPIvjC0NpefR5XAe-74" target="YoF2BPIvjC0NpefR5XAe-78">
          <mxGeometry relative="1" as="geometry">
            <Array as="points">
              <mxPoint x="860" y="1220" />
              <mxPoint x="60" y="1220" />
            </Array>
          </mxGeometry>
        </mxCell>
        <mxCell id="YoF2BPIvjC0NpefR5XAe-84" style="edgeStyle=none;rounded=0;orthogonalLoop=1;jettySize=auto;html=1;" edge="1" parent="WIyWlLk6GJQsqaUBKTNV-1" source="YoF2BPIvjC0NpefR5XAe-80" target="YoF2BPIvjC0NpefR5XAe-82">
          <mxGeometry relative="1" as="geometry" />
        </mxCell>
        <mxCell id="YoF2BPIvjC0NpefR5XAe-86" style="edgeStyle=none;rounded=0;orthogonalLoop=1;jettySize=auto;html=1;" edge="1" parent="WIyWlLk6GJQsqaUBKTNV-1" source="YoF2BPIvjC0NpefR5XAe-80" target="YoF2BPIvjC0NpefR5XAe-85">
          <mxGeometry relative="1" as="geometry" />
        </mxCell>
        <mxCell id="YoF2BPIvjC0NpefR5XAe-80" value="Capacity message&lt;br&gt;Received&amp;nbsp;" style="rounded=1;whiteSpace=wrap;html=1;fillColor=#d5e8d4;strokeColor=#82b366;" vertex="1" parent="WIyWlLk6GJQsqaUBKTNV-1">
          <mxGeometry y="1400" width="120" height="60" as="geometry" />
        </mxCell>
        <mxCell id="YoF2BPIvjC0NpefR5XAe-82" value="Increment Capacity" style="rounded=1;whiteSpace=wrap;html=1;fillColor=#dae8fc;strokeColor=#6c8ebf;" vertex="1" parent="WIyWlLk6GJQsqaUBKTNV-1">
          <mxGeometry x="230" y="1400" width="120" height="60" as="geometry" />
        </mxCell>
        <mxCell id="YoF2BPIvjC0NpefR5XAe-83" value="" style="shape=image;verticalLabelPosition=bottom;labelBackgroundColor=#ffffff;verticalAlign=top;aspect=fixed;imageAspect=0;image=data:image/svg+xml,PHN2ZyB4bWxucz0iaHR0cDovL3d3dy53My5vcmcvMjAwMC9zdmciIHdpZHRoPSIxNjYuMiIgaGVpZ2h0PSI1MCIgdmlld0JveD0iLTMxMyAzNzYgMTY2LjIgNTAiPjxnIGZpbGw9IiNGMTJFNDUiPjxwYXRoIGQ9Ik0tMTk1LjkgMzg1LjhoLTguOGMtLjIgMC0uNC4yLS40LjR2NS4xYzAgLjIuMi40LjQuNGg4LjhjLjIgMCAuNC0uMi40LS40di01LjFjLjEtLjItLjEtLjQtLjQtLjR6bS0uMSA3LjZoLTE3Yy0uMiAwLS41LjItLjYuNGwtMi4yIDguMy0uMS40LTIuNi04LjljLS4xLS4yLS4zLS40LS42LS40aC02LjZjLS4yIDAtLjUuMi0uNi40bC0yLjUgOC4zLS4xLjQtLjEtLjItMS00LjEtMS4xLTQuMWMtLjEtLjItLjMtLjQtLjYtLjRILTI0NXYtNy4yYzAtLjItLjMtLjUtLjYtLjRsLTguNCAyLjZjLS4zLjEtLjQuMi0uNC40djQuNWgtMi4yYy0uMiAwLS40LjItLjQuNHY2LjRjMCAuMi4yLjQuNC40aDIuMnY3LjhjMCA1LjUgMyA4LjEgOC41IDguMSAyLjMgMCA0LjUtLjUgNi0xLjN2LTYuNmMwLS4zLS4zLS40LS41LS40LS45LjQtMS42LjUtMi40LjUtMS41IDAtMi4zLS42LTIuMy0yLjN2LTUuN2g0LjhjLjIgMCAuNC0uMi40LS40di01LjRsNi4zIDIwLjljLjEuMi4zLjQuNi40aDdjLjIgMCAuNS0uMi42LS40bDMtOS4zIDEuNSA0LjggMS40IDQuNGMuMS4yLjMuNC42LjRoN2MuMiAwIC41LS4yLjYtLjRsNi40LTIxdjIxYzAgLjIuMi40LjQuNGg4LjVjLjIgMCAuNC0uMi40LS40di0yMS44YzAtLjMtLjItLjUtLjQtLjV6bTExLjItNy42aC04LjVjLS4yIDAtLjQuMi0uNC40djI5LjVjMCAuMi4yLjQuNC40aDguNWMuMiAwIC40LS4yLjQtLjR2LTI5LjVjMC0uMi0uMi0uNC0uNC0uNHptMTEuMyAwaC04LjhjLS4yIDAtLjQuMi0uNC40djUuMWMwIC4yLjIuNC40LjRoOC44Yy4yIDAgLjQtLjIuNC0uNHYtNS4xYy4xLS4yLS4xLS40LS40LS40em0tLjEgNy42aC04LjVjLS4yIDAtLjQuMi0uNC40djIxLjljMCAuMi4yLjQuNC40aDguNWMuMiAwIC40LS4yLjQtLjR2LTIxLjhjMC0uMy0uMi0uNS0uNC0uNXptMTQuMS0uNWMtNy41IDAtMTIuOCA1LjUtMTIuOCAxMS45di4xYzAgNi40IDUuMyAxMS44IDEyLjcgMTEuOCA3LjUgMCAxMi44LTUuNSAxMi44LTExLjl2LS4xYzAtNi40LTUuMy0xMS44LTEyLjctMTEuOHptMy42IDExLjljMCAyLjItMS41IDMuOS0zLjYgMy45cy0zLjctMS44LTMuNy00di0uMWMwLTIuMiAxLjUtMy45IDMuNi0zLjlzMy43IDEuOCAzLjcgNC4xek0tMjg4IDM3NmMtMTMuOCAwLTI1IDExLjItMjUgMjVzMTEuMiAyNSAyNSAyNSAyNS0xMS4yIDI1LTI1LTExLjItMjUtMjUtMjV6bTAgNDMuNGMtMTAuMiAwLTE4LjQtOC4yLTE4LjQtMTguNHM4LjItMTguNCAxOC40LTE4LjQgMTguNCA4LjIgMTguNCAxOC40LTguMiAxOC40LTE4LjQgMTguNHoiLz48Y2lyY2xlIGN4PSItMjgxLjgiIGN5PSIzOTQuOCIgcj0iNS4yIi8+PGNpcmNsZSBjeD0iLTI4MS44IiBjeT0iNDA3LjIiIHI9IjUuMiIvPjxjaXJjbGUgY3g9Ii0yOTQuMiIgY3k9IjQwNy4yIiByPSI1LjIiLz48Y2lyY2xlIGN4PSItMjk0LjIiIGN5PSIzOTQuOCIgcj0iNS4yIi8+PC9nPjwvc3ZnPg==;" vertex="1" parent="WIyWlLk6GJQsqaUBKTNV-1">
          <mxGeometry x="280" y="1378.92" width="70" height="21.08" as="geometry" />
        </mxCell>
        <mxCell id="YoF2BPIvjC0NpefR5XAe-87" style="edgeStyle=none;rounded=0;orthogonalLoop=1;jettySize=auto;html=1;dashed=1;" edge="1" parent="WIyWlLk6GJQsqaUBKTNV-1" source="YoF2BPIvjC0NpefR5XAe-85">
          <mxGeometry relative="1" as="geometry">
            <mxPoint x="-40" y="454" as="targetPoint" />
            <Array as="points">
              <mxPoint x="-110" y="1550" />
              <mxPoint x="-120" y="454" />
            </Array>
          </mxGeometry>
        </mxCell>
        <mxCell id="YoF2BPIvjC0NpefR5XAe-85" value="Complete Dial Attempt&lt;br&gt;Opens Slot" style="rounded=1;whiteSpace=wrap;html=1;fillColor=#d5e8d4;strokeColor=#82b366;" vertex="1" parent="WIyWlLk6GJQsqaUBKTNV-1">
          <mxGeometry y="1520" width="120" height="60" as="geometry" />
        </mxCell>
        <mxCell id="YoF2BPIvjC0NpefR5XAe-98" value="Open Slot = (Available skill agents - Active attempts) * pacing" style="text;html=1;strokeColor=none;fillColor=none;align=left;verticalAlign=middle;whiteSpace=wrap;rounded=0;" vertex="1" parent="WIyWlLk6GJQsqaUBKTNV-1">
          <mxGeometry x="-460" y="390" width="360" height="20" as="geometry" />
        </mxCell>
        <mxCell id="YoF2BPIvjC0NpefR5XAe-99" value="Pacing = Ratio of available skill agents:active attempts" style="text;html=1;strokeColor=none;fillColor=none;align=left;verticalAlign=middle;whiteSpace=wrap;rounded=0;" vertex="1" parent="WIyWlLk6GJQsqaUBKTNV-1">
          <mxGeometry x="-460" y="370" width="360" height="20" as="geometry" />
        </mxCell>
        <mxCell id="YoF2BPIvjC0NpefR5XAe-100" style="edgeStyle=none;rounded=0;orthogonalLoop=1;jettySize=auto;html=1;" edge="1" parent="WIyWlLk6GJQsqaUBKTNV-1" source="YoF2BPIvjC0NpefR5XAe-97" target="YoF2BPIvjC0NpefR5XAe-98">
          <mxGeometry relative="1" as="geometry">
            <mxPoint x="-120" y="390" as="targetPoint" />
          </mxGeometry>
        </mxCell>
        <mxCell id="YoF2BPIvjC0NpefR5XAe-103" style="edgeStyle=none;rounded=0;orthogonalLoop=1;jettySize=auto;html=1;" edge="1" parent="WIyWlLk6GJQsqaUBKTNV-1" source="YoF2BPIvjC0NpefR5XAe-102" target="YoF2BPIvjC0NpefR5XAe-0">
          <mxGeometry relative="1" as="geometry" />
        </mxCell>
        <mxCell id="YoF2BPIvjC0NpefR5XAe-102" value="" style="ellipse;shape=doubleEllipse;html=1;dashed=0;whitespace=wrap;aspect=fixed;align=left;" vertex="1" parent="WIyWlLk6GJQsqaUBKTNV-1">
          <mxGeometry x="70" y="50" width="60" height="60" as="geometry" />
        </mxCell>
        <mxCell id="YoF2BPIvjC0NpefR5XAe-117" value="" style="shape=image;verticalLabelPosition=bottom;labelBackgroundColor=#ffffff;verticalAlign=top;aspect=fixed;imageAspect=0;image=data:image/png,iVBORw0KGgoAAAANSUhEUgAAAoQAAAEMCAYAAABdvKdnAAABQGlDQ1BJQ0MgUHJvZmlsZQAAKJFjYGASSCwoyGFhYGDIzSspCnJ3UoiIjFJgf8LAwiDHIMBgyqCVmFxc4BgQ4ANUwgCjUcG3awyMIPqyLsgsISn+TcGSX1f4eP32OS8ltB5TPQrgSkktTgbSf4A4MbmgqISBgTEByFYuLykAsVuAbJEioKOA7BkgdjqEvQbEToKwD4DVhAQ5A9lXgGyB5IzEFCD7CZCtk4Qkno7EhtoLAuzBruaWBs4EXEoGKEmtKAHRzvkFlUWZ6RklCo7AEEpV8MxL1tNRMDIwMmBgAIU3RPXnG+BwZBTjQIil7mBgMGkGCt5EiGW/Y2DYs4iBge8dQkxVH8i/zcBwKK0gsSgR7gDGbyzFacZGEDb3dgYG1mn//38OB3pZk4Hh7/X//39v////7zIGBuZbDAwHvgEAZgheoIAlpqUAAABiZVhJZk1NACoAAAAIAAIBEgADAAAAAQABAACHaQAEAAAAAQAAACYAAAAAAAOShgAHAAAAEgAAAFCgAgAEAAAAAQAAAoSgAwAEAAAAAQAAAQwAAAAAQVNDSUkAAABTY3JlZW5zaG905bmODAAAAj1pVFh0WE1MOmNvbS5hZG9iZS54bXAAAAAAADx4OnhtcG1ldGEgeG1sbnM6eD0iYWRvYmU6bnM6bWV0YS8iIHg6eG1wdGs9IlhNUCBDb3JlIDUuNC4wIj4KICAgPHJkZjpSREYgeG1sbnM6cmRmPSJodHRwOi8vd3d3LnczLm9yZy8xOTk5LzAyLzIyLXJkZi1zeW50YXgtbnMjIj4KICAgICAgPHJkZjpEZXNjcmlwdGlvbiByZGY6YWJvdXQ9IiIKICAgICAgICAgICAgeG1sbnM6ZXhpZj0iaHR0cDovL25zLmFkb2JlLmNvbS9leGlmLzEuMC8iCiAgICAgICAgICAgIHhtbG5zOnRpZmY9Imh0dHA6Ly9ucy5hZG9iZS5jb20vdGlmZi8xLjAvIj4KICAgICAgICAgPGV4aWY6VXNlckNvbW1lbnQ+U2NyZWVuc2hvdDwvZXhpZjpVc2VyQ29tbWVudD4KICAgICAgICAgPGV4aWY6UGl4ZWxYRGltZW5zaW9uPjY0NDwvZXhpZjpQaXhlbFhEaW1lbnNpb24+CiAgICAgICAgIDxleGlmOlBpeGVsWURpbWVuc2lvbj4yNjg8L2V4aWY6UGl4ZWxZRGltZW5zaW9uPgogICAgICAgICA8dGlmZjpPcmllbnRhdGlvbj4xPC90aWZmOk9yaWVudGF0aW9uPgogICAgICA8L3JkZjpEZXNjcmlwdGlvbj4KICAgPC9yZGY6UkRGPgo8L3g6eG1wbWV0YT4KeM0IugAAQABJREFUeAHsnQm8TPX7xz+yC1kjZKdC9LNH2bMVIckaQosUEVEkFVGJRLIVSnaF/llSkSUUUmQt175m38P5P5/vce6dmTszd+aaO3Nzn+f1mjvnnO963ufMnc88z/d7vsksMagpASWgBJSAElACSkAJJFkCtyTZM9cTVwJKQAkoASWgBJSAEjAEVBDqjaAElIASUAJKQAkogSROQAVhEr8B9PSVgBJQAkpACSgBJaCCUO8BJaAElIASUAJKQAkkcQIqCJP4DaCnrwSUgBJQAkpACSgBFYR6DygBJaAElIASUAJKIIkTUEGYxG8APX0loASUgBJQAkpACagg1HtACSgBJaAElIASUAJJnEBEBeGOHTvw/fff49q1a0n8MujpKwEloASUgBJQAkogcgQiJgiXLl2KDh064Msvv8SlS5ciR0BbVgJKQAkoASWgBJRAEieQIpjz37t3Ly5cuOC1SNq0aXHnnXd6TfN2cPXq1ciTJw/GjRuHW26JmC711jU9pgSUgBJQAkpACSiBJEUgKCWWNWtWn3D8pXkrdO7cOWTJkkXFoDc4ekwJKAEloASUgBJQAmEkEJQgTJcuHfjyNHoHvR33zOe6f/ToUWTMmNH1kG4rASWgBJSAElACSkAJRIBAUIKQ/fPmCfR2zNe5HDx4ED169MDmzZtRuXJlX9n0uBJQAkpACSgBJaAElECYCAQtCD29gZ77cfX77Nmz2L17twkVZ86cOa7smq4ElIASUAJKQAkoASWQwASCFoTsj6tH0HU7kL4WKVIEU6dORa5cubBw4cJAimgeJaAElIASUAJKQAkogQQkENQsY6cfjleQzw8Mduwg60iZMiUKFy6M48ePO1XquxJQAkpACSgBJaAElECECMRLELKv2bJlu6EHSlNI7t+/P0Knrc0qASWgBJSAElACSkAJOATiFTJm4TRp0sTLO+g0fM8994ArlfTp0weXL192Duu7ElACSkAJKAEloASUQJgJxNtDeKP9fPTRR81jZ/bs2YNkyZLdaHVaXgkoASWgBJSAElACSiCeBJJZYvEsq8WUgBJQAkpACSgBJaAEbgIC8Q4Z3wTnrqegBJSAElACSkAJKAElIAQiIgi/mf+NwlcCSkAJKAEloASUgBJIJAQiIggTyblrN5SAElACSkAJKAEloASEgI4h1NtACSgBJaAElIASUAJJnEBEPITffKMh4yR+3+npKwEloASUgBJQAomIQEQE4SOPPBI2BKNHj8amTZvMMnlz584NW7txNbRv3z6wP3x5e0D3v//+i9deew3nzp3Dxx9/bM4hrjqDTT9//ioOH7wUbDHNrwSUgBJQAkpACdxkBCIiCMPpIdyyZQtOnz6NAwcOgCLM1S5evIiBAwe6Hgpq+/fff8eMGTOCKuNk/uuvv7BgwQL0798fs2fPdg5HvydPnhwrVqzALbfcAuccohNvcOPSxWt4usUmlCmwEpXu+RmNqq/Dzz+duMFatbgSUAJKQAkoASXwXyUQEUEYTg9hpkyZwFfmzJnNu+uF4lrKEyZMcD0U1LbjeQyq0PXMVatWxSeffIJ69ep5LU4hmD17dnDdaG9991oowINTJx7Akm+P4ZMpJbBi8/04fuxf9Hxua4Cl45mtU0eg6oP2q/L9Mds8tutv75Xu3QtRxd7TXI9+MhoY84nrkfBv//wzEBUV/na1RSWgBJSAElACISAQkZVK6CEMlyhs2rQpChQoYETVlStXopF99913xkN34sQJ46VjAtdnfuGFF0wePq97+PDhYMj51KlTyJ07t8nHFVZo48aNM+X//vvv6PJly5ZFgwYNTDpDve3bt8eaNWvAuurWrYtRo0YhZcqUJj2QPz179jTZnHPwLHPo0CFMnToVlSpVQoUKFTyTfe4f3H8JyZMnQ5G70yHHHamQKUtKnDkdw8ZnwRtJGDc+pnRDGTLQ93WgfPmYY962tolIFS8qHnjAW2riOjZ/HlC5MpA/f+Lql/ZGCSgBJaAElEAABCIiCMMlBnn+JUuWNBjoaXO1jBkzGpHH0GzevHlNEj1xjg0bNsyIvsmTJ6NcuXJG/LVq1cqM+atWrZrx3mXNmhWHDx+OLk9B6Rg9fG3atMGnn35qwr4NGzYERWj9+vWdLHG+OyLPOQfPAgsXLsScOXNMSNnJ65nH236nF+7E7+vPoFbZtciQMYUIVmDkxGLesobn2Nq1wEcfQmBCYAMv94IoVNvrJ2Icwz4AXuoOrF4NfPE5cGA/cN//gK7dgNtu89/HCSJEv18CpEoF1KgJPNnWzn/sGPDeuwC9kLVqASdPAk88AeTOA0g4Hx8MtdspK/1h2+nSAdOmAamlnnXrgE1/yM1VSoRtP2DeXGC9HNu2Dcgo/eE9R4/liuXyKyO7nI8I+2IR5OufkKYqASWgBJSAEojQg6kTwSxjCqgWLVogQ4YM6NChg3k1adIk+paYOHEiunXrhooVK4o3LbnxaD4hgoECkdaoUSNUr14dRYsWjS5///0SCr1unBSyfft2NG/eXBxcD4ju2Ivly0UghNAoMjt27Gj6GUy1hw5cwu6/LyBvgbS4u3h64x3cuvlcMFWELu+RI8DrfYEXRdzNnA1kygwMfAvIlRt4vBlQpGiMiBv1EdCyJfDpZ3b7M6b778eO7QBDuYMGA2++DVHPwM6ddpnhw4CcOYEBAyCzeiRN2j5/3n692AV4sAowegyQUn4zvSV5aEdEsDI8XeshKfcm8Odm4McfgDp1bMHXuDFQpgzw9VdAmjTA5C8gNw4w5B27vP5VAkpACSgBJZBICci3XfgtnB7CuM7u8uXLXrNcunRJnE/i7XEx7rvOCE6WLBl8lX/vvfdM3o8++gj58uVDv379QJEYSsuSJYsRpp79jKuNMcP34sypK/hhfQWkSXsLnmm5Ce+/+Tdats+FFCmTRRc/c+YMOPGGnlB6PBPEFkpIuEQJ2zPIBjp2EhFVHwIWkPMzwkrah1wP4zksVQpg6D+PePJk9rhfuzW9Lfjo9aPHUcZkgmFoGUJgys4WgShiH91eAhYvsquiN5FiVIS8sWeeAxjiFg7GatYExENsrEpVYPduEYR1pZ9pIeMSbE/i0aPAP//YeZo8BpQWkaimBJSAElACSiARE0igb3n/ZxzOWcb+esKwMcfhMexL2yYhv6++Eu+OGD2AI0aMiE7bunUrJk2aZI6bDPKHQowzja9du4arV69i5cqVWLVqlUletmwZON6Q4xc5o3j69OlOsZC9c5Yyxyz27ds3qDpTpU4mj7O5imVLjmPHlnPYsfUcUqRIhuTycozjHlu3bm3GQfoSvU7eG3o/eFC8a8VjqqCoYnhfxna6WerUwNYt4iEUodakUWCTTVhGxljikYeBp0VoHr8u0rb8CXEN22KQjXD7+rABmYpuh4wpSvlq1QImps7QNY0hYMfSiheQQtXT2rUTAXnBFpJdngcOHvDMoftKQAkoASWgBBIVgSTtIUyfPr3x3BWT8V2pRTzceuut6NGjh7lAAySU2LVrV5kjkB+FChUSR9Buk7dZMwljXrcaNWqY9DzirTov4cZ77rkHQ4YMMam9evXCM888g86dO5uwNMPRnFXM+niMYWqOAeQjcRiSZjlOSgnmWYlpJCyZIkUKU7/Tp0Dee71RUBxmV/FSpz/BR9Dc+78M6P9uESSL0YPYtWsXOAubIWm2k2BGb51MzIm2Y+Jdo7dNJvGAws2xjb/Z4wc/GWun0bMoYzL92uRJtmdwxkzbc9erp539FvEKsh0OnnRO2vHoyT2BCuWBd+zraApwvKEzPtTJ769h1v/BcODUSWCJeBzflPDyHPmh4TGO1V8VmqYElIASUAJKIJwEIiIIwznLOC6Yb7zxhnkA9NmzZ81MZCc/RdCYMWOMl/CIjHPLlSuXEW5OOt+ZZ/78+ebh0Qwfp+PEg+vGsDjHDR6V8GGOHDnM0XfffddJvqHH3TiVcAzjgw8+aEShcyyQ9xx3pMbYqSVw4cJVCR1fxe05ZaKEh23YsMEI5Mcek5BnQhpn5k6fJhNKDgE5cgLLV8SEjxnOdTxwDM0WKWKLQfHGmokiFHT+jGU4YYTXhZ7IP34HqsjYwPz5bTG4bKmEf6vLTOZvRTiesWtiePfzyfYEF1637xYDnJgybYa/liAx9Zi+vi0CsOnjQCU5t4cl3Dxxoh0CV0Hon6GmKgEloASUQMQIREQQJqYxhCTPR8G4zjB2vRr0HN55552uh2Jt07PozTjuzhGD3tJDcYwewvha2rTJxWklosuLUczSq0kvaoIax/dxJu8T4nm96y577N3g68L5nmLybL+hMilkIPDCixL+/RJ4qr0djq3/sD3r199Enceaykxi8fTxkTD02tWtB0yaaItATjL5dALwoXjy2K4IfhlAaU9ieVzE3BPyopeSYwdffyNuBHyEzuiPZdxjVnsyjKwygyKF7UkqfFSRx3jUuCvUHEpACSgBJaAEwkcgmYwVi8PNEvrOJCYPYejP7uapkbcGPZ9hMYZsxUsr6tv2tjmN0hvIyThO2Jozgjk7mN5DzgqmIOYjZXzZZRnjd0JCt9e9tDgpYxP5aBhZwQbFi0MGf9p1NRCB+dVcuz7WxTGDnBxCb2KgovvCBXksTWq7//Q4Hjoo5QvwF4ev3ulxJaAElIASUAKJgkBEBGGiOHPtRNIm0L0bULCghKfFs/eDPDqGYu7Nt5I2Ez17JaAElIASSLIEIiII1UOYZO+3xHPiMmHGPEOQE1oKF4FM1w7cE5h4zkJ7ogSUgBJQAkogJAQiIghD0nOtRAkoASWgBJSAElACSiAkBGRqZPgtsTyHMPxnri0qASWgBJSAElACSiDxEVAPYeK7JtojJaAElIASUAJKQAmElYB6CMOKWxtTAkpACSgBJaAElEDiIxARQRjO5xCOHj1alq3dZFYFCWYVkEAu1ffff29WFuG7L1u7di1effVVX8nxPs51kV+TZ92dO3cOH3/8sTnHeFfmpeDlS9ewc9t58/BqL8l6SAkoASWgBJSAEriJCEREEIZzDOEWed4cl4c7cOCALFO7L6SXbvHixZg3bx4e54OMfRgf8Mz1jkNtXO5uxYoVskDGLfJIPfscQ9XGrC8O4f67f0bt8mtRtuBKvNp1W6iqjn89nZ+VBaYb2iuMxL+WuEvOmmk/mzDunPHPsV148kHctBEfAuPG2tv6VwkoASWgBJRAhAhERBCG00OYKVMm8MWVSPgeSuP6w/TO+TMu/ZYQAphCMHv27LLSSNqQn9uno/ehVNmMmLnof6haKyumTTyITb9dX9rN38kmVBqXnaOYTy4PoZYl9RLMrl0Dhn1gLzOXYI14VNxeVl5p3sLjoO4qASWgBJSAEggvgYgIwoQQSL6wNW3aFAUKFEDFihVlGVtZx9bFFi5ciHLlypnl5QoXLozBgwfLwhWycoVYhw4dUKJECfTt29cIr6pVq+LXX391KR33JttjvZ06dXLLzHWCixYtihdeeAEVKlSQhTdyonfv3m55fpCHJbNvd9xxh1k6b9CgQfBcVKZnz56mjHOObhXIDtsZOnQo9uzZ45nkd3/Ep8UwTtY6LlPxNtRrlN3k3brpnN8yCZq4eBFQvYa8qgFLFrs3tXo10L4d8Jx4ELkm8VtvxqTPk5VHWonY4oueP8d6dJc1k3+SiyxirGkTYPYsO6XP9WtAbyTXUN74G8C8D8uSd/362iupOHU471zoZ9wY4FF5jiE9mJMmOil2WW/txOQAFi0Clv5oH/HVL6b+9RfwfGegsSyDN/Bte5UW13p0WwkoASWgBJTAjRDg0nVJ0dasWWPJGsTW7NmzLRmPZ4nYs+677z5rwIABBocIQytNmjRWjx49rFOnTlnvvfeeJaHhWKguXrxoifcx1nEeuHz5siXjC62aNWvGSheBZ8k6x9Zvv/1mSSjbEuFobd682eSTELAlawhbIlita9euWVFRUZYISGvYsGGx6vF3oGvXrtYDDzxgiRfTXzafaVeuXLOeqLfBuifHMuvAvos+8yV4QovmlvXH7/L6w7Lq1rGsK1fsJi9Jn2rXsqwfvresX9ZaVpvWltXs+jX66SfLeqyxZa1ZbVl/7bQs1rFooV3u0YaW1bGDfXz2LMt6oJJlyXW0DhywrEoVLWun5Kc9KfX9+ot9/LU+ljVxon3c9e+smZbVob1lHT5sWbt32+383//ZOXy1s21rTD8/HG5ZY8f4z3/unGXVr2tZU6da1sGDljXkHcvq3cu1F7qtBJSAElACSuCGCNxyI2IyvmXD6SH01ccvvvhCFqdogCZNmshStSlQpkwZ0OM2ceJEU4QhWb7eeOMNZMyYEW3btjVj9nzV5+14SlnDVkSltyRZijc52rRpg1KlSiF37tyoXbt2dP0zZ85Enjx5jEeSnkH2Nb+sqfv11197rcvXwc6dOxtPJz2IwdqVfy282P5P/LLqJIaOuQd35JY1eiNhW7fa3roS90JctvZawWvX2D1Ztx544EHbe1i2HGQwpxy/vjT3HPH6PSbnXb6CLFFXCGgmY/Z+cJn88/Qz9vEmjwFZswIy1jN6veNcuexxhCdk3WN6V2+/HXhVPIT168cmMH8ewDqYJ29eaVO2Xb2Y3tqJXUvMEW/5v18C5MotoeXm9jrOzzwHrFoFXLwYU063lIASUAJKQAncAAEZlBV+C+cYQl9nd0lCgrfddptbMvfF4+d2TDx1Zp/Czgknu2W4gZ0MGTJEl3atnzOHs4pIKci1dq9boUKFcNdddzm7Ab0zLC1eyFjnGVdhzjB+vu1mrPjxBEZOKo6H6meTc7dExCZzK3pcln9LliyZGcPolhDKnUULgXNngackvEu7cB747jvg/krAL2sh8XT7OP9SMDrGMYcy2QZTvrCPXLkC5MvnpALZssVsyzhMEyKOOSLjFZMDr/SWSR8jgI9HieisLqHpDq457G2ObyxWPOY4hduJkzH73tpJ6edj5y0/z4Uh40dcBClD1adOQX5xxLSlW0pACSgBJaAE4kkgyXoIGzVqhKlTp0Y/ruXYsWP44IMPwOORtjp16piZyRxf2KJFCzzxxBPGQ7ht27aguvbOO++A4nvWLPGWBWgUfs+23ozvF/yDOg2y48ihy3i8zgaMfHe3Ww0Sxsajjz4KejATzDjJY4mIv5dkHN9LL9mv7j3s8X+XZYyfeHBx+HBM88f+idmmkGfeb761X/O+Ad4fGpPOsv6MAvLeksD0GcAnMguYYwrHfBK7RAER7UeOxBzfI5xchWlc7cSUtLe85ee5VCgfcy48pzniLRaxr6YElIASUAJKIBQE4vhWDEUTsetIDB7CevXqYeDAgahcuTKKFy9uJm4wTPvuu++aDnNSyYULF4wg4wEKM4pGhmFpfJRMXgkR0ot38uRJE/Zl+aVLl5r0/v37m2MUTXw8DMPC+fPnx86dO7Fx40bTzvDhw/Hzzz+DE0jGjx8Plvnzzz/FGVUdb775pgknc2ILvYUyHhCOt9I0EMAf5mfYWsZKBpDbznLs8GWsXWF7uObNPIwBvXZg47rTSJXa/VZZt26dKcCwd4IZPYCpUwN16trijAKN2xRIwhQlZZ/hYwoyisfZLhNHZAgA+HzIy5ftFydiyA8Av5YsmS0yL4mXWLy0aPek/S7eWdSsBXl+Uezicv9g0YKYmckrV0qYWsRbKK20nAt5O+L3u8VAF/s+DGUzWpcSUAJKQAkkXQIpInHqHEOYGERhly5djMDbv3+/mUnsOt5vwoQJ4Msxz3GPJUWM+Ju9K5NTwJcvo7h0NZm44rqLbt26mVnI7FuWLFmCFoOsjLOYn3vuOTNG0q1yPzs5cqXGpoMP+slhJ3EGM8c/kkOCGWfg1qgZu/oqVe2w8TuDgV27bHHE2eEV77cfT8MSbdtBBoXas4ivSXi1SGE7BBy7tpgjFITilUVbEYLTRVxWErHX8BHILwbgpFwfuSaxrG49Of6ijFGU8YvpJPScO49dR6yMN3CA7XN85BPykh8WZuzg62/cQIVaVAkoASWgBJSAOwFdy9idh+4FSICTbCio+WiciNlJmfRxRsYXUiRRzK37FTLzBnh7YEyX9u+ztynUArWzUie9kLRDh+xwsev4Qzsl5i+9k/v2iiC81X1sYkyO0GzxR8PRo0D+/BCVH5o6tRYloASUgBJQAkIgIoIwsXgI9Q6IPwGZ224mlMS/hhCU/EfGDD7dUUK77SFPHQcmjLc9g3xmoZoSUAJKQAkoASUQMIGICMKAe6cZlUBcBPhYGj78mbPDK1QM/fi9uNrXdCWgBJSAElACNwGBiAhC9RDeBHeOnoISUAJKQAkoASVw0xCIiCC8aejpiSgBJaAElIASUAJK4CYg4P4skTCdkOeM3TA1q80oASWgBJSAElACSkAJeCGgHkIvUPSQErgpCPDh2pGajcyZ1zRvD9q2UyLzN5JMInPG2qoSUAJKICAC6iEMCJNmuukJdH4WaNRQlkKWZxYmpM2aaa+THMo2Gj0K/P2XXaNr/U0fA3bvDmVLgdc1TR4CPmqknd+1f75qcO13IPl91ePv+GF5hNDjwoQ24kNgnKxA48+2b5NnPzbzlyP+aUPfB3jOnubar2ZNgR07gITsh2f7uq8ElECSJRARQRjOh1KPHj3aLE+3cOFCzJ07NyIX+qw8127+/PlYvnx5rPb58GsuoZcQdlpW1mjevLks1iGrdYTQ/v33X7z22muymMc5fPzxx9HL/4WqCWqyvbsv4tiR0PbbZ/+4HjHXC04uz/aTB24nmNFrNuyDmFVNQtXQGBE2efPZq7UkRP032k+nf77q8eQSV35f9QRzvL08qqh5i2BKhCdvYu1XeM5eW1ECSiCCBCIiCMM5hnDLli2y4thpHDhwQL7z5Us/AnZUHiY8e/ZscDk8T+NSdbu42kaQxqXzZsyY4bcUz3vt2rWyDO8lv/mCTUyePLlZju8WCQc6fIOtw1d+LpP3ULm1qFpyNSretQqtGvyGE//86yt7aI4vXgTw2YXVq8nayYvd61y9GmjfDnhOPIgLZA3ht96MSZ8nPzBaiajgy9Xb00PWXuajcDqI6GjaRJbUm2WX6dPbfqc3ktdk428A8z4sq5306wvwgdiudvw40FHuGYY5aUPfA8aPs7dZ/tmnbW/jcBGZXNbOs37m5PJ/HZ8CHpN+fPWVXdbzb5fnZfm9RfZSfc3FI3Z9+UVwXeYBb9jnxjy0v8QT+bwsm9dYvJJcDvD8efs4/34yWkSWlH+ll/v6zk7/mOfnVUDL5nb54cNEHMt5ePbbyf/WAOnLjyxlG7fJgOavH3YO++8qWUqQ14EMli2LSeH5OnVz1aD+r9se4pe62g84j8kZs+XreveW8/1J6mYbjqfWKcWHib87xF7x5inph3zeYxnXKCdfPgTdtV+xMuoBJaAElEDCEbgl4ar2XXM4PYSZ5IHFfGXOnNm8++5VwqUUKFDArJucjKtpeNjQoUPx6quvehyNe3fTpk2g19OfcW3lv//+GxkyZPCXLeg0CsHs2bMjbdq0Iec6d8YRXL1i4Yt5pdC1TwH8/NNJzP5SvigT0vgl/NBDQLUawI9LY0K6FCv9+wFPPimiQoQZPbnC3Ri9vZMnAV1lObu3RBjNmQNQWNIoViZPBl4TkdeyFUDhQwHX7SU7va+ID67R/MFQSW8pIu9TCVVfE+E42053/sqShTghonD7dvvIjyKIZN1rY5s3i0czuf3aslXqvxi7fmbkusdsl56nYdIez8nTNv0BfPt/IvAGAc+IWB0s7xShfLbjCjlPip3WbWzx92IX4MEqwOgxQErxqFK00Vh+2VLhIW098ADwzXxz2Pxx+seQLYXv81LH8BHAFhFHM2fG7reTP8+dwlT679hCWTO6YCH//XDy8v3MaVvo1ZJr2+UFW9A76fID0Qgw7lOwZ8sGfCbXs259EZ3CydP8XW/5jGHMJ0A9KZvzDveSX38FpEkj98MXkPU6gSHvuKdTdL/S0+abMyfkl2tMv9xz6p4SUAJKIEEJREQQhtND2LRpU1CQVaxYEVWqyBfZdevUqRPuuece+T6aiapVq5ol2AYOHAiGQ2nTpk1D4cKF0bp1a+Nle0C+5DJmzIj33rvuoZA8o0aNQqFChXDHHXfIcrfF3ULSFy5cQJ8+fVC6dGnUrFkT3333nanX+RMVFYW77rrLtDF+/HjncPT7kiVLTFmKriJFiqBJkyZw8o0bNw6zZs3C+vXr0b9/f/NiSNrVeso6vuy/51rDX4mXiMeLFi2Kn376CZtFWNx9993mWI8ePUwVFJENGzY058Vza9euHU6cOOFavSwTLF9iYg5ft0TZOSTejmHDhmHNmjWeSX73n30pL+b8UBqVqmZG87b2l+vWzef8lrmhRD7YmmKtxL3yKmELtbXX+7xuvYibB23vYdly9nrCsOzm5oiIeEzGeJWXtY8pUpo1E7H2fUxXnn7GPt7kMSBrVomB7wVy5LDTc+WyRSeZ7tkD3H478KoIpfoiKDyN7VKwyf2CQoVFDAkL8fwa7yLTXM21fuf4Ux3sc3ukgb2ayx7phzfr2NFeh5me0pKlgN822Lk43OBtEYjy+cH3S4BcucUL2FyEj4iXZ54DVq2yhSM9qc3k+P33Aw0aAqXLxG5l4SLIBw2o/ADApQBf6mEvO+it3yxds5bt4eRnktdI7nfjyfXXD9dW162DfMiBFi2B+/4n4wGlf96sUiXx7nWC/LqRa1ZQxl1GuXs+WSau683wM++HdOncW+BSgxySQOO9MOAte5t/6RHs1tUW4eSrpgSUgBKIIIEUkWg7nB5CRxBRWLna2LFjjcCjh+71118Xh8gVDBgwAMckfEQhw7F3FGx16tSRaNxhjBgxQn7op4kWjBMnTsT7778vDozFRrBxfCDzUmSVLVtWHDLtcfLkSYwcORL/yBJrnl7A/PnzY+PGjRgyZIgRT659YziYguyDDz4QndFMHETb0ahRI9ErIljE6J3LKiKD/cqbN685lo0eDhdjvTwf5nO1xo0bm7GM7JsjkAcNGgSKTJ7PRfEK1RdhQiHMkDTDzU8//bQ5n6+5TvB1q1BBhJCYw/f64eg3ei/niNeMIWUnb3Sin43bc6aKTp00Zr/ZrlXf/RyiM4RiY9FC4NxZgOE82oXz4lUT8X6/iASGW+8UL5Vj1/mbXQ4/kHPDlC/sVHrUXNc7dr0evPcoaFwteXLxDPWWyQ3iKft4lAid6uLFE/HmaRRQDHWyjlIi1DLdZgvE3yTc3Olpz9yx92+/LkKZ4q0fTgnX85QfAZB70Hj66PGSH0LGeM70fj7iIlw54JNh0fUivtq2c2oDisu9elqOu9ohEUb58scckR8i8mvEHvsYczRmi/e2eLlN3ReFH0U7lyj01w964xyjILy3pLNn9ylmL2br6lWg9yu2J5aC0JvFdb15Ht6sXTs7tN7wEVtot2oFyGff2PRp9o8E/ihQUwJKQAlEmEBEBGFiWKmE4Vu+KPTKly9vLgNDyxRDFIkMi6ZKlcqIRk5GSefxy//zzz83HkbXcXwM0fLc6DWcPn26TBDcYTxvrJyex969RQC4GAVmypQpcc15RMf1tC+//FIimA/h2WefNUfo3aTAcryXFIfnZewWRay3cYksxP6zz97C1N26dRNtUQoffvihCSd/9NFH6Nevn8n7yy+/iNNqj0y2tQwH1sVwOye/sH32NxCjoGXb5Sho4mGfjtqHj4fuRttncqNuw+zxqCGAIuS+RMTfS93F85XLLsCQ3fviBWZoVRiasXlOVcf+cbaA9OltQVa7jn2MnjSGbR1jWX9GAUmxMn3G9RDzRDvs+MYA91Ly48IIRoq52rVtLxYnvuyOsr1f7rlj78XVD6eETBBCJvGQ0Sj6GEL3NJ5zBfmsvDMkJoXj7yh+ye/IYfFiFrLT9u2NEZJOborBv3Y6e7aw43rU94rQ82X0Eq5cKaJd+uf0yV8/XOvJnds+F+cY++RpvAfe6C/jMZ+TMPaH/KCKOK/qmSvu641kscvwyC3JZWjAcBHNJ+VeWwK8+aZ4G7+y89KrWK+e3EcdxTv8sPuPD++16VEloASUQIIRiONbK2HaDaeHMK4zoNhxLIuM2aKHzBFePH67hPM8xSCPc4ZtbvnCKSgeBef19ttv46mnnjKeQYpJV++cazss78/olbvtNvEEudh9993nJq4otuI7e5hexXryRfTFF1/IpNoNZtJNjRo1TGs8LwpVhpWd82JInUI3UDHIisiSwrVYsWIuZxHY5ugP9uDtV3fimW550W9wYdFZ8qXtYWfOnAEn63iKaY9s/nfpAeRYvjp1bXFGgcZtCo4VK+j+BBg+PnLE9mLNnhlTX5kyEkL93p4xTDHICRZxzRaXa2ZEJoUjBU67J+13iigKH4aCPY0ijWNAV/9se7jkPsD/fWOLQXoZXc21ftfjgWzzXGj0VnFsH71xnsYwML1unMBC4/jELp3tbYaBOaaVnlCKvF9/sY+7/q1c2T7OsYQUYpw8wjGS/vpdo6YIQrkWrK9qNbs2f/1wa0/6xHL7xdNMLyAFmafJfWQ8nOwb+8Fz8Gbxud6s520RgD+vssX2w4/YYz55v9AYKi8o155DBTg7XE0JKAElEEECERGE4RxDGBdbPj5lr4zv4pi+vn37Gs9caoqEOIzhYc4QpkexRYsWYCiW5VhX/vz5TSiXIVvO9OXs5sGDB8dRY0wyhRTDras5LkuMIo1jBek5dIyCkaFlCqKr8mW3UrwoqzieK0B7+eWXwbA5vaHO2EEWpbeU3kGKP54XX/TybZOZkDweqC1YsAANGjQwTAMtw3yfDNuD9wb8jZKlMyBnrtTo8cxWtHtMwpcuxn4wpM2wfHxFsamOk0koODytiniIGDbme8NHbdHD59dlFU+Y4yFt284WEpxF3KSxHR7lxAt/RsHBUHtbEYK8xyqJCGkoIoETNTiOVM7Jq5UTrxzHGdJLWKCgncVz/CCPutbPCSHBmAxfQBtpv1MHeZf+OZ4+1zpknCwef1zG4smLM6s5q7jPa3YOTqjYtlXGETaV0Hdb72MIGZamcGzR3K6DLMnYX7/pecycxR7f6Xjp/fXDtb9sT8bwmlnNzaTP6YSfp/GHF71z7aTP7PeO7SK2iwEjP3LP2bZd8NebNTzeDPIhkHGCnYCnOwKPyv3k8WMPHZ+W2ceb3WdBu7eue0pACSiBhCcgX65J1mT2rSWTRKwCBQpYMmHEElFnyWQIw6Njx46WeAct8fRZuXLlsiQcbInoimYlnkSrXbt2lnjTLPHeWenTp7ckTGrJmDmTZ926dZZ42CwZu2iJeLO6d+9upUiRwnrllVdMuoSETb1sl/1gG2XKlImuX8b0mXIiLi3x1lkifiwZixidLpNWLPG0WjLpw+STsLK1bNkyky5izBLvpalTPInmnftTpkyJLs+NWrVqWRLetsQj6nZcJrRY+fLlM68777zTYh9kTKJbnrh2fvjhB6t69eqWCOG4srql16/0i1Ug449urycbbXTL89dff1kyyceaOHGi2/GQ75w4bll79ljW1auWde2aZf2y1rJee9W9mX17LYuvYOzMmZjcBw9aVlRUzH4otlzrD6S+qg9a1smTlnX0qGXJfRWnMe+OHZbcOO5Zr1yxrF27LOvSRffjnnunT1nW2bOeRy0r2H776odnzWR8XK6lPzt2zLLOnbNz8Hqfkj56s/hc79OnLWv7Nsu6fNlbjXpMCSgBJZAoCERk6brEMIaQUpuzhjm5guPt4msMMXNyB2fjMkzsafslXJVTZmTy2X3BGr1/B2WGoohFcaKId8mL0XvING9hbS/Z3Q7x3Nl/9s+bsW3P0Le3fL6OcYyjiGBfyfE+zmc6OjOtRYjHu544CzL0Sa9Ou/b2ZIYJ4+2JE5yJezNZtSrA3PmxPVc30znquSgBJaAElIBfAhERhH57FKbEFTJGjBM3uNIGheFjj0lIUO0/QWD48OFGAHP2c4IbH0uz/Cf70SoVKjKmnuBNhr2BiZ/Zj2YJYKhE2PumDSoBJaAElEBYCEREECYGD+Fnn31mxsWRMr1MHD+o9t8hIP51n17T/85ZaE+VgBJQAkpACSQOAhERhInj1LUXSkAJKAEloASUgBJQAiQQ/8FzN8AvMc0yvoHT0KJKQAkoASWgBJSAErgpCKiH8Ka4jHoSSkAJKAEloASUgBKIPwH1EMafnZZUAkpACSgBJaAElMBNQUA9hDfFZdSTUAJKQAkoASWgBJRA/AmohzD+7LSkElACSkAJKAEloARuCgI3vYdw9OjRePDBB83ycVwj+FEuHRVGW7t2Lb7++msMGjTIrVUuZyermZhjZcuWNesiu2Xws7N48WJkypTJLDPnK9v3sjbt2bNnzSN1atb0sjybr4LXj4eDGx+KzeX5ZCUU84qjS5qsBJSAElACSkAJJBCBm95DKEvJmfWEDxw4YERhAnH0WS3XNuaaw54my6+B6/1yjWKuvBGocfWSL774AlyL2J9RNM6bN0+WnpU1XONhCc2N5/Hcc8+Z8+c6yWpKQAkoASWgBJRA5AiEfl2xAM5F1uCNMxeFlKzX6zWfrA8MWWPXa5rnQXrS+MqcOTNSR2AlBq6A4m0VlKpVq4KvPn36eHbZ7z6X2evWrZt5+csoaw+DHtGvvvrKXzafaQnN7dixY9i5c6d5IHidOnV89kMTlIASUAJKQAkogYQnkGg9hFmzZvV59v7SPAs1bdoUBQoUQMWKFVGliqzZ6mIM5d57771mLd/KlStj0aJFJnXPnj24++67UbhwYQwdOhRcFaNcuXJm/4EHHoiugd495uE6xo0bNwa9fq7G9pjeqVMn18MBbfvqm1P46tWrJgxdoUIFMCQcjJeRoeQXX3zRhKnZ9xo1amDz5s1O1ebdHzdmOHToEIYNG4Y1a9a4lQt0h2sw07Jnzx5oEc2nBJSAElACSkAJJBCBiAjCQDyE6dKlM+vVep43vYNMC9RKliwJlqHw8fQq5syZE9OnTzfi5vXXX0e/fv1MtXnz5sW7775rhGD37t3NEmkMv9JjuXDhwuimKca4JvL+/ftRvHhxjBkzJjqNGxzHN3bsWOzatcvteCA7vvrmlF21apXxsLH+du3a4YUXXjBjFZ10f+9dunQBRe/GjRtBT+zDDz+MunXrmjGHTjl/3JiHHObMmYMJEyY4RYJ6P3r0qMnPdaTVlIASUAJKQAkogcgSiEjIONC1jOkJPH/+vBuhYLyDbgW97HBSw5QpU8zEhltvvdVM8uCxNGnSoEGDBujVqxd+/PFH40Gj8OrQoYOZpOFURVHDsXz0rqVIkcK8nDS+p0yZ0tTleizQbX99Yx0MgXPiB8PgpUqVMsKOgrRRo0Z+m7hy5QqmTp2Kjh07RgtYehuPHDmCX3/9FdWqVfNb3kls2LChEcr0nAZrM2fOxOTJk41Ap/hWUwJKQAkoASWgBCJLICKCMBAPIbE43kBHFDr7oUB24sQJtG7d2ggTjrejAKMHkZMdaMmSJQO9gxRZlSpVwqeffopffvkluml6/0aMGGGO0zvIfcfDGJ0pnhtx9Y3Vpk+f3ghOp4ksWbLEEs9Omuv75cuX8e+//5pQNr2Qjk2bNg2c7RyosT2Kz9tuuy3QItH5OMP69OnThjfHRKopASWgBJSAElACkSUQkW/jYNYydvUIum7fKLYNGzaYMDIndlCUUPg5wtOp+8knnwRDsx988AE48eH22293krBs2TIzJpHeuVOnTkV726Iz3MBGIH1jqJfjGxnG/uOPPzBq1Kg4vYPsEsPtfAwPQ8YcJ9iiRQvUrl0bnOTB8wjUOEOaXtS+ffsGWiQ630svvYTevXubflMcqikBJaAElIASUAKRJRARQRioh5BoHK8gw7jBjB2MC2v16tWRI0cOIwrpKXPGAdJLxtm5NLb57LPPYsCAAejRo4dblQwfL1myxEzM4ASUMmXKgI9qadOmjcnHCSe5c+c2zz3kOENu83l7nFlLY3keGzlyJDh+0cnLNH99owCkZ5MTZZYvX45s2bKZCS8UdV27dmVx85gbhmILFiyIkydPmrrz5MmDpUuXmvRJkyaZ8DAFbokSJVCkSBGsX78ewYznIxuGyTNkyGDqDPbPXXfdZYocP3482KKaXwkoASWgBJSAEggxgYg8mDrQMYTOuTKcy1BuKAWhUzcFCcOvqVKlcg65vTO8Sm9aoUKF3I47O4cPHzaeQ4aYQ21x9Y3tccawI86CbZ9ikbN9OeEmPqFbjkekKIyPkRs9lO+88w5cZ27Hpy4towSUgBJQAkpACdwYgYgIwhvrspa+GQhQTDZr1sx4Yxl2vv/++2+G09JzUAJKQAkoASXwnyQQkZBxMGMI/5NUtdNxEqBn8eOPP8YTTzwR75nYcTaiGZSAElACSkAJKIGACKiHMCBMmkkJKAEloASUgBJQAjcvAfUQ3rzXVs9MCSgBJaAElIASUAIBEYiIIAxmlnFAZ+En0zfzv/GTqklKQAkoASWgBJSAElACERGEOoZQbzwloASUgBJQAkpACSQeAjqGMPFcC+2JElACSkAJKAEloAQiQuCm9xCqNzIi95U2qgSUgBJQAkpACfyHCEREEIZzDGE42xo9ejQ2bdqEhQsXYu7cuRG5Dfig6vnz55tVTDw7MGHCBEydOtXzcEj2uTZx8+bNwbWSQ2l8MPhrr71mHqDNx9SQb6jt6hULO7aeC3W1Wp8SUAJKQAkogf8MgYgIwnB67cLZFpeuozA6cOAAIrVG79GjRzF79myzNJ7nXfjnn39i165dnofj3P/9998xY8YMv/l43mvXro1e9s9v5iASkydPDi79x5VUHL5BFPeb9cq/Frp1+BP/y78CdSr8gqOHQytm/TauiUpACSgBJaAEEhGBiAjCcHrtwtlWpkyZwFfmzJnNeySuM9c4HjhwILwtpTd06FC8+uqrQXfL8Xr6K8i1kv/+++94r23sq24KwezZs5s1rUPNNZnc/YXvvhUPPZzNNH/1quWrG3o83AQsuRZXr4a2VVn+ErIWeJIznjdfkTJZlSjRWajvrUR3gtohJRA8gYgIwnB67cLZFtfmpSCrWLEiqlSpEn01OnXqhHvuuQczZ85E1apVUa5cOSPaGA6lTZs2DYULF0br1q2Nl41r+2bMmBHvvfdedB2jRo0y6ylz3eHixYu7haQvyJdcnz59ULp0adSsWRPfffdddDluREVF4a677jJtjB8/3i2NO0uWLDFl06ZNiyJFiqBJkyZw8o0bNw6zZs3C+vXr0b9/f/NiSNrVevbsaeouWbKk62F89dVX5njRokXx008/YfPmzbj77rvNsR49epi8FJENGzY06ynz3Nq1a4cTJ0641cP6aQ5ft0TZOXToEIYNG4Y1a9Z4JvndT548Gbr0zIdSZTL6zZfgiZ2fBRo1BCiCEtJmzQy9yAq0vwz1t2xu5/5kNDDmE/8lV64EetnXPVbGQMp7FhIvMx5vCvzwvWdK4thvJn3bsQPYvg14oln8+jTiQ2DcWLvszz/zg29vj/wImDTR3g7338OHhPtjdquu/fPVD9d+B5LfVz1xHX/macg/JMgYlJj70l8Z5/r4yxOftN82APz8e5prv1zv94Tqh2f7up8kCaSIxFmH02sXzrYcQURh5Wpjx441Ao8eutdffx1cx3fAgAE4duyYETIce0fBVqdOHRw+fBgjRowwy7k5gnHixIl4//33sXjxYiPYli9fbvJSZJUtWxbt27fHyZMnMXLkSPzzzz+xvID58+fHxo0bMWTIECOeXPvGcDAF2QcffGDWFt6+fTsaNWqEEiVKmGz0zmXNmtX0K2/evOZYtmzZXKsw9fJ8mM/VGjdubMYysm+OQB40aBAoMnk+Fy9eRP369Y0QZkj60qVLePrpp835fP3119FVVahQwWw7fKMTrm9wzOacOXNMSNnJ65kn0e4fPAgZXwCkTAVskC8HEfUJYvQQDfsAePgRiLs1QZrwW6nc3/hQhEmk7KdlQMNH7fOPVB8Sul35PwAks1uZPw+oXBmQz36iMdf++eqUa78Dye+rnkCPR/q+9NXPxNovX/3V4zcFgYgIQnrtwiXUwtmWrzuC4Vu+KPTKly9vsjG0TDFEkciwaKpUqYxo5GSUdOnSuVX1+eefGw+j6zg+hmh5boUKFcL06dPFubDDeN5YkEKyd+/ebnWkSZMGKVOmlMiRe+joyy+/xEMPPYRnn7V/pdK7SYHliFGKw/PnzxsR26FDB7c6nR32n332Fqbu1q0bSpUqhQ8//NCEkz/66CP069fP5P3ll1+wZ88ecYxZhgPrY1iYk1/YPvsbiFHQsm16Xv9ztngRUL2GCEL5KC5Z7C4IV6+2PWly7US1A7/+CvR73T7FeTJpafo0e7txE3GfPm5v9+gu3sZGwMTPgFOngBYtgcfE+9Tn+v1Ab8Qn4kXaugWYPNl+L10GeEXS06ePjW+CeJS/XwK5QYEaNYEn2wILvrU9Kz172fllIhO6dRXBN8IOyX4k7xt/g7jLgdZtgDJlRfTuFS/VJOCNAe5tyI8ieMvPXP9eBt4ZBKxYLsJG6urzKiD3vZvJjwoMHwasEVZM6/w8cE8xtyz4Zj6wSjyOFMI5cwK1awPjhYF8fuTGAcivbTu7TG85p/oPCxvp66uvAQULudfljYd7Djs8Sw/o/0n9Oe8Amjwmdda3cwVS3rM+7r/9lt3v8vLjaNkyCStMBT4WTyv7z/OXqILxCKZODfllBaxfB2wTb2PG2+za5EeZuQc2b5J7TK73a33lnvP4fH32KWSsC7Byhe2t5PXu8gKQPDngySVXbt/cyZrnyb7VrhNzNovkXmf/Gsi9fOwoMGgg5Fcc8L/SwFMdAHrLXPtN7yLzy7rnxpPn7X5j3+K6/uwB77N3hwB7dgNVq8WE0D3vy0Cuz19/AR8MBQ7sB8rK/5yXukP+AQKzZ9nnSu9e/vwx95R91P688l7ksAV+JvnZdDVetwFvyP+D6jKWpbD3z4trft1WAiEmEJGQcbjEIFmFs624rg3FjmNZsmQxHjJHePH47bffHksM8vi5c+eQO3duFCxYMPr19ttv46mnnjKeQYpJV++cazss78/olbvttutfGtcz3nfffW7iimIrvrOH6VWsV68evvjiC3GAbTCTbmrUEAEkxvOiUGW43Dk3htQpdAMVg6yHLClcixXzEAJMDIGdOXMGnKzjKaZDUDXAL0kR5KgmTH5cGhPSvSxfDv37iQB7EjJDCDI93P5SZKPiITaCpWs34K23Ie5RgMKSxi8rCj1+4bdsZX9Z8oum20t2el8RlPyS5RdaS/lCGi8iwLomX2az7XTXvzu2AwzhDRoMvHm9nZ07IWMWgG//D3ID27kpAChab73V/lKkB/mzSUBdEUHyg8fYufN2ONS1fm7zS9RbfqatW2cLlBEj5V3uUX5Zehq/5Cl8h4sIbdQY6C7neea0ey4KgJKlbKFHr9kcOVcOLxg3AWDdvAbfisilyRAGE86uJ32nmHM1Xzxc83Cb9a8WbhTeMlwE778H7N8nIssHT8/y3vYp1NZKn2lrpO4/N4sA3GXvL/nOFq4ymU1CAJDwAeTDIEJXeJQR8UejiKfQGCgCmz8GfvjBPu76d+9e6bOITIp48mR7vP40Ty6+uJN9/9eBWnJPU0yyXcec/nFffhQibz4RPZ8Dd94pwn9g7H47+f3db7764bTpvPOHBX/U9H/Dvl+2bbVTXO/LQK6P/DjGi12AB6sAo8fYP+TeGmDXJf8jMH4c5B8qULOW07L9TiHKHyDDhsu59wdmTAfI2zGOaXy1D38Ry/+D2vLPUdrh8AE1JRBGAhERhPzCD5eFs624zomPT9kr/wSioqLQt29f45lLzS/nOIyhZM4QpkexRYsW8n++sXynpzZ15c+fHxRdDNlypi9nNw8eLF/gARqFFMOtq+mNEqNI41hBeg4do2BkaJmC6Kr841op47tWrVrlJMf5/vLLL4Nhc3pDnbGDLERvKb2DFH88L77o5dsmng0eD9QWLFiABg0aGKaBlmG+s2euYMHco/hjwxlTbPE3x7B+rbuYYD84tpNh+fiKYp992ipfShRrJe6VVwlbqDlf+uvWi9fnQdt7SC/E449LNdeZzBERRQ8DvUX0YDVr5j427uln7OP0TDGMzy+eHDnsbuTKZYtOjtMU76z8CpEvIhGPjgfLtbO3phcRJl92co8hswgSGT4AfpHyi5zDB35Za+dmOJaillapEtBRRBC/2OQHDHZHQVzMJsnrH3/56bHkuYgXHN262yLo+PGYakSog2KIwjif9IlfwjIGFqt+jsnDrQwZbA9OJukT62RYkmx47jyPx2Sb3lnHmrew+Xp46uGLh1POeacXqFVr22NZoaKMhewl3s4rIph98HTK+Xun95ueJ9of8s5zlc8kdu8W1ln4q8hO498MGUWgp7WvgXMO9ELTW3dvSaDi/XLto2Lyu25RCN/3P9u72+ZJ27PqpDtcKF58caeIl/HSxvvFep5o7pSOeef9uOkP25vLa8AfPBRY3vrNUr7ut0Cv/+XLtvfx5Z629/jFrrbXMaZH9lYg14fecnpHZZiP8TY/85wwkv+Fzo8jnjt/fHl6so8dgwyOltdJSMgEGDve/myyZUZtBrxh94l9VFMCESKQIhLthtNrF8624mJJAUQPGMf5cfLHxIkTTRFOOpk3b57x9tETyBAsw8CV+GUpxpnBDK3mlHAXJ2XsFC8NvWwcE0jvHfM+LoKBooveQoZ2fxAPAMPGFIe1JUTGCR18RiEFDp+XyAkcv0oIkv0ZPnw46tata8K1KSQ88+CDD6JrV/mned3YFoUnw9QMH3OCDNumMbzcsWNHUy/HBLL/7NO7774rDqiWJg8nu3DcIUWnc85MoGePE1bYX4pGCk4+Zua5554zdZjCAfyhl5H9zsAv/iBs3ZrT6CqPneHjZ2hv9NyBEqUyYN5PZaJr4WN6josI4TmynZDaooWiwM9KuKy9Xe0FEU6cEHS/XHeKLXpOHLs+ptPscswhQ21TvrBTOYuTgsgx1zGeDJNSdLoaw2wMEcsQBnw8yvYctZcvZU/jjxWGEZculS9rETP8YnWMgoQTNSh4GMruJfXRKBZ6vyLeje22ILSP+v7rLz+FMvtKoxill0x+9EQbPUj8Mu34VPQhE46rVDlm39sWx20WEy+nY/yC5xe1Y/IZ82r+eLgWYP3yeYm2uvXsTfnc++QZndnHBsUVvXRmwpXcr1Wq2qF0+azJrygfhVwOU3g5xvv4osc94aS53nN35Iq5x5jucPHHff9+W3Q69RUv4WzFvJMPf5jQY0dLJfdZu+ufAftI7L/e7jd//XCtgZNH+IOI9w+NItn1+thH7R9kvu53Jw8/e/TCPyLC2TH+eKWXmnaXj3uHYXqJlOD55+x+UHg750yhf4fcG+TB+9m55+0a9a8SCBuBFGFryaUheu3CJdTC2ZbLKXrd7N69uxE+nomcZMGXL6M38LPPPjNCjpNOKOYo/Byj4PpL/kntl3/GFI0UVfTGOcbJKP6MYofh54PyjzqX/KOmoHM1CiHOLKb3kGmuYxwpJAN55iJnWFMwUri5GoVxVFSUadsz9O2az992dQmFUcR61u2vDNOq1sqC7cfki9WPMcx9q4RCH6MXKZTGf/z0srzU3f5yZN38gmN4keFi+VEgM3liWjwmXxiO0cvV6emY8VkUapcuOql22Zi92FsUkPQUTZ9xPcQ80Q6Teo7v4zg6hgBnzLS/RHv1jKlLrhuefcb2Yt57r4xVE68Uz+mN/nJcvvSGf8jBrCI2/fCNK/8pF5HGfjA/PXqOpb/V/vKcNccOWfM4vUYunw0nq9t7AfFcHjkSIwoYznMV3HC//6PL+uMRnUk2KM4p/hyTseVdnu4AADNPSURBVLLmGAW8L55OXl/vFKOcaMBwNK+dDOvA6I/tcH+t2r5KxRzn/RSIuXpz/xbhQ+9jtF3n4o/7V3ItKJgc27fX2Yp5Jx8KW15P9st4HMXzxlC3L/N2v5ElxVNc15/ikx46pz2+U5R6WiDXl5+9CuUlxD0kpjTrdv0RFpMSsyX/O43nnB5velE5wYueb35uKMInThZveEc7lOw5tjCmFt1SAglKIMD/EqHtQ7jEIHsdzrZ8UeKDlTlWcJIMqudDo+NrFGb55J+pqxh0rYveOYrB+Bi9ko53z1d5CiNXMegrn7fjnERDserLKHJdx0H6yufreLBi0Fc9nscZ4udjeNLziyCURg8gv+Tr1LW/4Pklz222Q88bH+HD8DGFC7/AZosoc4zjwr7/3vbYUQwOfNseY+ike3unyOeXL4Ujv5zaPWm/80uJ3hdXz5tTnuHIcvLlR48Kv0D/+D3m0Ti589gh1wnyQ8YRJBRj9JRwnB7bE++xX4srP8crOuJCPOhm8oGrsKEHi55D5wcPWbVuaU8c8Ncw+7doQYzHk4+4uT7Zy18xE571xcO1YOUH7T5REFMYvv2mfV398XQt72u7rFwLCkKGHOntSiGfdYrN/4n30NPMtfbhBfTM67q/bKkt0Djx4ccf7bZc07ntj3vlB8RjLH2ip9ARep7l6a2Tz7upn2kcj8qJLDRf/fZ2v/nrh12b/ddpz3kcF8fg8jPgaYFcH3r6KOicH2vfLZaxkp09a4q9/4N8Xoe+Z4eFZeKe8bY6nzkOr+D/gq4vAZ9OsMVr7Br0iBJIcAIpErwFLw2E02sXzra8nKo5xBnADMFybFzIhYWvRvV4SAhwlnQw4xkDbpQTGWrUjJ2doUB+cb0zGLKsjP1lwy/Wivfbj6dhibbtAD6bsWkTEYuWjJsrbIeAY9cWc4QCjY/vaStCcLqIS4ZVGz5iTxA5KSJOzjOWcZzie+IJ4Zi7W0R8MPQ5aSJQrbotcCgkx4+X8GUVuygH03OGbru2tueDIV/O+OVz8Hjc0/zlZ//k+ZXo+ypkirs9M/N98aq4GsUDxz8yz/SptnhuLedXRMr5M55Htxdl7OXjInbTAhQb1x9t5K+YGbfpj4dT+GE51x7y5c7n7/EHGsfiUVT74+mU9ffO0PDYT+wJMszHMHJUVIx31LUsBS49iFmyuh6Ne5tDDJo3s4cZ5C9gTzDxLBUXd4lYmGdOZssu95nct96MnjJ6k3k+DGFzshPNX78977e4+mHXaP9lePbNARKyF8HFH128Lz0tkOvDCS4cz/uEvOQHuBk7+PobnjXF3udn/fPJ8pmVeyKbXJMUKe2JN5zg4xi58QcHZ90/LtdATQmEmUAy+bKTbxQ1JaAEEhWBkxJSOyPjC/mlQzG37leAz2Z8e2BMNzlzlUZBE6jxETGOt5MzUjm+kCE8X8bwNcfXOZNS2C9OzvBn9IpRWFAE0bvJNhka82Vx5Wcone378n7TE8cJMgzbUWQGYuzXvr3Sx1vjDve51hcMD3os2ScKF8eCKe+Uie87vXz0PLm2768uCiZ6qjnWjdcsrjCoP+68t9g2vV++jEKfj8PxbCfYfvvrh2vb9ApyUpLrOEnXdG4Hen3oCees4vz5ba+fZz3e9nm+e+U+5efHHxdvZfWYEggDgYgIwnB67cLZVhiulzaRVAhQJHFMET0bDA/y+Wht29mzjpMKAz3P8BJwBCEfV6OmBJRAkiMQEUGY5CjrCSuB+BDYulWeOfiTHZbibN5AxrnFpx0towRIYNky2xPrzCZWKkpACSQpAhERhOH02oWzrSR15+jJKgEloASUgBJQAjcNgYgIwpuGnp6IElACSkAJKAEloARuAgIuo53Ddzb02oXLwtlWuM5J21ECSkAJKAEloASUQCgJREQQhvPZgOFsiyuAbJKnznP1jrlz5/q8TuvXrzfpRzgLMUDjo2u4ogifZ8gl8PiQ6FDa1asW/t5xXhZ6kEecqCkBJaAElIASUAJJikBEBGE4vXbhbGuLLCfG9YQPyGMy/K3esWbNGrzyyitYsmRJwDcbBSDFJh88zQdd80HSobJfVp1ChaKrUKvsWpTKswJjP5THcagpASWgBJSAElACSYZA6FRFEMjC6bULZ1tcjYOvzPKMKb77Mq7Vy6XWPJeI85Wfx526KQS5LnBaPuctBHbp4jV0abdZHr4sj7gbXhTFSqbH4Nf/wrrV8pwtNSWgBJSAElACSiBJEIiIIAyn1y6cbTVt2hQFChRARVmaqIqzesP122ilLI9VTx74WkqWneKqJU7I96qsQsG1iFu1aoWBAweijCxLVq1aNcyaNcvtBuSyci1btjTHevXq5Zbm7HC94VGjRknYVx5IG6AtW3IcRw9fRofn86Bl+1wYMvJuU3LmFHmwrJoSUAJKQAkoASWQJAhERBCG02sXzrZKyvqz9NxxXd47XZ6G//vvv5s1lR+WJa2+/PJLcE3gqVOnmhuMIeAxY8aY4ww5U9C1aNECnTt3loUpvo6+CVOmTGmEIw9U8LLM1hV5Cj7HGE6bNg2//fZbdLm4NvZG2eKxWMkMJmvhu9IhdZpbsGdX4KIyrjY0XQkoASWgBJSAEkjcBFJEonv02oVLqIWzLV8sJ0yYYM63S5cuJsugQYPAfjmrBlIUMsw8XtaFTSPretLDeFgWTx87diwaNWrkq1q34ylSpED//v3N+MWyZcu6pQW047KCoctmQEU1kxJQAkpACSgBJfDfJhARQRguMchLE862fN0KJ2W9zpw5c7olUwC6WnpZXzZVqlTRh7JkyYIzZ85E7weyUblyZRMupjcxULszvz0W8c8/zqJa7azYse2cLOd5DXkLxB6jeFzWAeW4R8++B9qW5lMCSkAJKAEloAQSJ4GIhIzDOa4vnG35usS1atXC5MmT8euvv4JjBmfPno3ly5e7Zd+7dy8GDx5sRCBnIX/00UdBidlr166ZcYgNGjTAtm3b3Or2t1PtoSzIniMVJozchykTDuCV5+2yzVq7C9ioqCg8+uijoHdTTQkoASWgBJSAEri5CKiHMAzXs3Xr1kYMcuwfxw9yEglnGXfv3j168gmPUXQVKVIEFHdt27ZFjx49Au4dPXesmyFnV09jXBWkSn0LRk0qjmdbb0K/7tuRIkUy9HmrEEpXuM2t6Lp168x+mzZt3I7rjhJQAkpACSgBJfDfJxCRpevCOa4vnG3FdTtwZvHFixeRNWtWt6x8UHW3bt3w008/uR2Pzw4nl3A8YbB27ZqF3X9fQM7cqWViTPJYxfv27QuGvkeOHBkrTQ8oASWgBJSAElAC/20CEQkZh3NcXzjbiutWoAfPUwyyzA8//GAmkUycOBF8PM2NWHzEINu75ZZkKFA4nVcxyHSGtOm1VFMCSkAJKAEloARuPgIREYThHNcXzrbic3twTOHZs2fRuHFjbN26Fbt3745PNQlehmK1XLlyCd6ONqAElIASUAJKQAmEn0BEQsbhP01tUQkoASWgBJSAElACSsAXAfUQ+iKjx5WAElACSkAJKAElkEQIqIcwiVxoPU0loASUgBJQAkpACfgioB5CX2T0uBJQAkpACSgBJaAEkggB9RAmkQutp6kElIASUAJKQAkoAV8E1EPoi4weVwJKQAkoASWgBJRAEiEQEUEYzmcDhrOt0aNHY9OmTVi4cCHmzp0b0lvo+++/N3Xy3dPOnz+P+fPnm/SNGzd6Jodl//Tp02jevDkuX74clvacRv7991+89tpr4EO/P/74Y8PfSQvV+/lzV7En6kKoqtN6lIASUAJKQAkkOgIREYThfDZgONvasmULKIwOHDiAffv2hfRiL168GPPmzcPjjz8eq97jx49j0aJFGDNmDAYMGBAr/UYP/P7775gxY4bfanjea9euxaVLl/zmC3Vi8uTJsWLFCnmw9i1w+Ieqjai/LqBVg99wX74VeKrpH6GqVutRAkpACSgBJZDoCEREEIbTaxfOtjJlygS+MmfObN5DebWHDBliPGDe6syTJ49ZUq5r167ekm/4mOP19FcR+/D3338jQ4YM/rKFPI1CMHv27LLCStqQc0+VOhkqVc2MEqUy4OoVK+R91wqVgBJQAkpACSQWAhERhOH02oWzraZNm6JAgQKoWLEiqlSp4naNlyxZgtKlSxvhUqRIETRp0gTjx483eSzLwrBhw1C0aFHkyJHD5AtlyJlCrWHDhrjjjjvMq127djhx4kR0//z1bdy4cZg1axa43nL//v3Ni+FpV+vZsycKFy6MkiVLuh4226dOnULnzp1x5513mrbr1KkTHdbdsGGDOecXXngBFSpUQM6cOdG7d2+3OqZNm4aHHnoIZcqUQYkSJQxfru7iamyf5vB3TeM22xk6dCj27NnjmeR3P1eeNHj+5XzImSu133yaqASUgBJQAkrgv04gIoIwnF67cLZFQURPFYUXBZBjDLlSkD399NPYv38/Pv/8c6xatSpaoFAMjh07FpMnTzbh5jfffBNPPvkkli5d6lQR7/eLFy+ifv36KF++PHbt2mWWx7tw4QLat29v6oyrb/S+cf1lrsOcN29e88qWLZtbf+i9ZD07duxwO86dNm3a4NChQ/jpp5+wfft21KxZ07yOHj2K//3vf6YfM2fONOe/bt06zJ49G3/++aeph+MDe/ToYcLVTCO31KljizOKSZrD3+y4/Jk0aRK+/vpr/N///Z/LUd1UAkpACSgBJaAEHAIpnI1wvtNrFy6hFs62fDH88ssvjZfr2WefNVnoQeTEEwoeGtcJ7tatm/Escp9snnjiCSMQq1WrxkPxtl9++cUIT3oh6SWjMaQ9YcIE035cfWvUqBE4aeXKlSvo0KGD134wbJsuXTokS5bMLZ1jG+lN5BrN9JzSevXqZdpesGCBEb0cA0jRWKpUKZNeu3ZtMyawWLFiSJkypRF5bdu2xd133417773XjJVkmWCMHkoK8IcffjiYYppXCSgBJaAElECSIRARQRguMcirGM62fN01nGhx2223uSXfd9990fve0pmf3sQbNc6+TZMmjQnpOnUVLFgQjRs3NoLLW9uufWMZCr34zB5m3RSL6dOnd5o27xkzZgQ9l465jjtkX11DwhSs9A5S2C5btgwvvvii8TTScxmoOaF4z2sQaHnNpwSUgBJQAkrgZicQkZBxOMf1hbMtXzcLvWxz5szB6tWrTRaKNI7Ho9ihMX3EiBE4fPiw2adHjWFOHr9RY6iY3kF621q0aGFe5cqVw7Zt28zxuPrG9imkGBK+du2aEWsrV640Hre4+sbQedmyZfHOO++AYWr246uvvjIhYY4LjMsYaq5UqRKKFy+OPn36mDGX+fPnjw4px1XeSWf7/GHAsZDB2L49FzF/1hEc3H8JZ89eMdt7dunjZ4JhqHmVgBJQAkrgP0JAvqTVwkBAJmdYIqwsETSWTMCwZAyf9c8//5iWRSxZMr7QEu+YJeLHEo+aJePyonslzxa0ZEyilStXLku8deY9d+7c1o8//mjysG6myVg/Uwe3CxUqZMmEDpMuk0asfPnymRfrYR9c6/fXN1bA/omgskTgmXOQkLcl3jpTt4R+LfbFs29Tpkwx6VFRUVb16tVNOQkbWzIO0fr2229N2m+//Wb6LCFsS0K6ljxj0RLvoSXeP2vz5s2WCEJLhKypu0aNGpYIWUvCx6ZsMH9EbJs+OO0GWvb9N/+2CmT80e319qs7Ay2u+ZSAElACSkAJ/GcIRGTpunCO6wtnW3H9BqCH7eDBgxDxFGu8HcsyxHrkyBGTHuw4ubjaZjrbTpUqlZkk4pk/rr4xPz2bDB9zvGCwxucUsjy9hsEYyzHkzGc73n777ab/wZR38nIMZIoUERkh4XRB35WAElACSkAJJFoCERGEiZaGdkwJKAEloASUgBJQAkmQgI4hTIIXXU9ZCSgBJaAElIASUAKuBNRD6EpDt5WAElACSkAJKAElkAQJqIcwCV50PWUloASUgBJQAkpACbgSUA+hKw3dVgJKQAkoASWgBJRAEiRw03sIk+A11VNWAkpACSgBJaAElEBQBNRDGBQuzawElIASUAJKQAkogZuPgHoIb75rqmekBJSAElACSkAJKIGgCNzUHkI+CJnLrN17771BPxA5KIqaWQkoASWgBJSAElAC/2ECN7WHcOfOnRg6dChatWqF3bt3/4cvk3ZdCSgBJaAElIASUAIJRyAiglDWxU24M3KpuVSpUpgzZw64LJusm+uSoptKQAkoASWgBJSAElACDoGICEKuLxwuu/XWW5EyZUqcOXMmXE1qO0pACSgBJaAElIAS+E8RiIggDJeH0LkSGTNmxJEjR5xdfVcCSkAJKAEloASUgBJwIRARQRhODyHPtXLlypg7dy7eeecdXLx40eX0dVMJKAEloASUgBJQAkogIoIw3B7CLFmymHGEu3btwr///hvrqh8/fhwnTpyIdVwPKAEloASUgBJQAkogKRCIiCAMt4dwwYIFqFmzJsaOHYsMGTK4XdeoqCg8+uijGDRokNtx3VECSkAJKAEloASUQFIhEBFBGG4PIT2AhQsX9npN161bZ463adPGa7oeVAJKQAkoASWgBJTAzU4gIoIwnB7Cq1ev4sqVK0ibNq3Xa7lhwwbw8TQlS5b0mq4HlYASUAJKQAkoASVwsxOIiCAMl4dw+/btaN26NSgKixYt6vVa7t27F23btvWapgeVgBJQAkpACSgBJZAUCERk6Tp6CMMhCo8dO4b58+ejdOnSxgvo7YJaloVkyZJ5S9JjSkAJKAEloASUgBJIEgQiIgiTBFk9SSWgBJSAElACSkAJ/EcIRCRkHM4xhP+R66DdVAJKQAkoASWgBJRAxAiohzBi6LVhJaAElIASUAJKQAkkDgLqIUwc10F7oQSUgBJQAkpACSiBiBFQD2HE0GvDSkAJKAEloASUgBJIHATUQ5g4roP2QgkoASWgBJSAElACESNw03sIR48ejQcffBD79u3DpUuXzDJ1EaOdiBpeuHAhLl++jLvvvhvffvstunXrFvLe8ZE+v/76K2655RaUKVMm5PVrhUpACSgBJaAElEBoCNz0HsItW7bg9OnTOHDggBGFwWD7/fffMWPGDJ9F4kr3WTAECTfa9sGDB8GHcp87dw6bNm0KQY9iV/Hhhx+ie/fu+OGHH2In6hEloASUgBJQAkog0RCIiCAM5KHUFCtcacTbi2mBWqZMmcBX5syZzXug5ZiPQomeNF8WV7qvcqE4fqNt3wiXQPv/888/4+GHH0bPnj0DLaL5lIASUAJKQAkogQgQiIggDOQ5hFmzZvWJw1+aZ6GmTZuiQIECqFixIqpUqeKW/PXXX+Pee+9Fzpw5UblyZSxatCg6fdy4cZg1axbWr1+P/v37mxdXPXEsrvSzZ8/ixRdfRO7cuXHHHXegRo0a2Lx5synOEHalSpVQsGBB5MuXDy+99JIRq507dzbpnTp1wj333IOZM2eiatWqKFeuHAYOHIh///3XpMfVNjP17dvXtFmiRAmzTnOTJk1MWecPebAf7F/Lli2dw9HvbOuTTz4xDKIPBrlB72P27NmDLKXZlYASUAJKQAkogXATSBHuBtleIB7CdOnSga/z58+7dTFt2rTmuNtBPzslS5Y0qSznaRSC06dPR7FixYwY7NevH+rUqWOyUchQeB4+fBh58+Y1x7JlyxZdRVzpXbp0wcmTJ7Fx40Yj9hg+rVu3LhjCnjhxohGE9PL17t0by5cvN57QsmXLYsiQIRg7diwyZsyIoUOH4vXXX8eVK1cwYMAAcCm+YcOGGZHlr28UsUuWLMHq1atNfz///HPMnj07uu/coEh1jEv7edqff/6JKVOmmPF/9evXD4o567pw4QIoinkeakpACSgBJaAElEDiJhARQRjoWsYUPZ6CMBjvYFzoL168aEQPhdOtt96KdevWgcfSpEmDRo0ambYpxjp06BCrKn/pLDN16lR07NgRY8aMMWWvXr2KI0eOmEkW9ArmyJHDCDt6KHlOt99+u/EW7tixw6y9zPWVR4wYgfLly5vyDPFSmFEk+mubmYsWLYr9+/ebfufKlct4GD/77DNTT6B/6Fl84YUXTN8ozIOxtWvXYtSoUUiZMqVOJgkGnOZVAkpACSgBJRAhAhEJGQfiISQPT2+g5/6NMDtx4gRat26Nxo0bY9myZZgzZ44RgteuXYuulqKMM3F9ma90lmHItXDhwiYszNBwkSJFMG3aNNAL6GmpU6c2h1KkSAHX9jnu0bEsWbIYseqEjX21zfwUcGvWrDECkjN8x48fj9q1aztVBfSePHlyM/7PM8weSOF//vkHhw4dMjyDFZOB1K95lIASUAJKQAkogdASiIggDGQMoXOarh5B120nPb7vGzZsMGFTjtGjaKInz9Mbedttt4GzeSnS6OFbuXIlVq1aFd2kr3SKII7P27NnDziGsUWLFkaQMeR76tSp6PJxbbz22mtmJnBUVJQZE/jQQw/BEY++2madnBnNcYkU3gw10zu4c+dOM6M4rjaddPa9QYMGaNasmV9R7OR3fa9Xr54JizNkzoklakpACSgBJaAElEDiJhARQRioh5DoHK8gw7ih9DZVr17dhG05lo5jCRliLV68uPHg8XmFNE4EyZ8/P/LkyWNCpy+//LIZz2cS40ifNGmSCQ8zFMzwKz2EHNvHMXWtWrUyYwkp+BgKZnh127Zt4BjFrl27OtWbcDEFa6lSpYxo5dhDx/z1jd5DPlvwrrvuMmMiKSTffPNNExZ3ysf1znAv2TOUTsEcrJErRevx48eDLar5lYASUAJKQAkogTATiMiDqQMdQ+iw4Lg+eulCKQiduilY0qdPj1SpUjmHYr1ztixFlq/2/aXTS8Z0CqRghBWFI8vGVcZb2/RmkhlD0EePHjUzidn/YI31sP34lGVb9C7SU8qxiGpKQAkoASWgBJRA4iUQkUklwXgIiY7ewYQyjs2Ly+gl82f+0p3n/fkr75m2YsUKMwaRXkYKw8cee8wzS/S+t7Y5/s85Tu9mfI313Ijx0TlfffUVMmTIgHbt2t1IVVpWCSgBJaAElIASSEACERGEwXoIE/D8E2XVnGnM0DHDyPRe/letT58+5hmIzrjH/+p5aL+VgBJQAkpACdzsBCISMr7Zoer5KQEloASUgBJQAkrgv0Qg+NkCITi7YGYZh6A5rUIJKAEloASUgBJQAkrAD4GICMJgxxD66X+cSd/M/ybOPJpBCSgBJaAElIASUAJJmUBEBKF6CJPyLafnrgSUgBJQAkpACSQ2AjqGMLFdEe2PElACSkAJKAEloATCTOCm9xCqNzLMd5Q2506ASyG6LIfonqh7SkAJKAEloAQSB4GICMJwjiEMZ1ujR4/Gpk2bsHDhQsydO9fnFeaKJUw/cuSIzzyeCXwUzfDhw83zCbnCCR9IHUq7etXC3zvO48KFq6Gs9uata9ZMyHqGcZ/ftKnAqJF2vkaPAn//5b/MJ6OBMZ/4z3Mjqa795rKCsixiWMy13bA0qI0oASWgBJRAMAQiIgjD6bULZ1tbtmzB6dOnceDAAezbt8/ndVizZg1eeeUVLFmyxGcezwQKQIpNPiyaD66OawUTz/L+9n9ZdQoViq5CrbJrUSrPCoz9cK+/7JpGj9+wDyCLPAfHYsxYIG++4MqEMrdnv+fPAzZvCmUL3uvybNd7Lj2qBJSAElACESQQkQdTh9NrF862nFVJMmfODH8PY37uuefMusbBLAnn1E0hyDWPuc5wKOzSxWvo0m4zLAt4e3hRzJh8EINf/wtlKmREmYq3haKJ0Nbx8yrgoxEQVyZQtRrQuTOwKwqY8gXw5lt2W1u3AjOmA6/3B2bPso+JmIasSy1P+nbfb9sOmCfe3OnT7OONmwBNH7e3e3QHGjUCJn4GnDoFtGgJPNYU6NPbTu/8LPCJiLzUqe195y+9fEt/BPLlh6xZCFHxdspwEZFdXoSsJQisXg188TlwYD9w3/+Art0giz87Ndjvsvwghg8D1kherjjT+XngnmLAnt3AZ9InWXsbS5cCI0e5lzt2zGa08TegQAGgdRugTFn3fteuA6xfB3n6OZBR2pUlBv1ykPWwMXs2zI3yfBfgB/kxs3wFUEz60/8Nm0EX6V+DhsDUKZC1E4Fn5dpUq+beLnlt3QJMnmy/ly4DvCI8nevifia6pwSUgBJQAmEioB7CEIJu2rSpfP8WQMWKFVGlShW3mleuXIl69eqhVKlSZhUSJ+TL9YJLly6NVq1aYeDAgShTpox8h1bDrFnXhcz1WnKLiGjZUgSJWK9eva4fdX+bP38+Ro0aJVpJxFKAtmzJcRw9fBkdns+Dlu1zYcjIu03JmVMOBVhDGLMdlj716wtQkAwXUbjlT2CmhG4vnBdRuCumIzz/3VH2vqzljPHjbLFVsxZkcWf3/eXLRZxMsgXZW28Dc+YAixfZZf+S8C6Fy2vSZstWtji7dAno9pKd3vf12GLw2/8Dli2V+iTPAw8A38y38/Lvlq3AJRFKtFEfSZ1yPT8VYUejgPW0d4fYQpTn2qgx0F3qPHPaFlsrpN8/LbPFnmc5imD50YDP5Lzq1geGDrVzuPb7kUdsMddY6pV7DnFx4BAIitaiReVd1qamCH7vfVucfi/ikLbpD4DnP3AQ8MyzwGB5v3IlNq8PpD889/GfisC8ZgtNuwb9qwSUgBJQAhEikCIS7YbTaxfOtkqWLGlwenrvfv/9d7Afb731FqpXr44pU6ZgxIgRaNCggQkBjxkzBuXLlzeikIJu48aN4vjqjBQpUoiDSjxUYilTpjTCkdsVKlTgm5tdkS9ejjG8LGFMCsz777/fLd3Xzt4oWzwWK5nBZCl8VzqkTnML9uwKXFT6qjvkxxeKUCtXDqgsQov2Ug/g0EF7299fWVM5WsQxn+v+0Pdsr1/560ybNRPv1/cAPWi0p58BChayXxSOe/fKdkE7LVcu+931Lz1/zZpDLoB9lELL0ygqXxZRLz8OjGCi948eTFc7cwZY8p0IRRF3OXOKtzEfMPdrYNXP4vXLb4er3xbBJWtdx7JKlYDCRSBuZLuvu6OA8yKac+Sws7LfTEsjL/FmI106EcLSDr2fvji0bw+UKGFPkKHo69DJroP59+yJ6ULHjuIBlfPha8EC4LcNAL2ANLbLcZcnTthl6Bl9tS9kQKydrn+VgBJQAkogYgQiIgg5ri9cQi2cbfm6ihMmTDDn26VLF5Nl0KBBYL8sxmnFOC6QYebx48cjTZo0xsN4+PBhjB07NloQmox+/lA89u/f34xfLFtWwoPB2vW+sJjLZrC1JGx+ir98+WPauPtugC+KDle7esV1D7hL8ria6z7HesrYTxNyZh56tCi+HKOnzTGKKIo5f8YwbNt2MTmKi4g6fSpmn1v0rjFsOuQd4OxZ8eZlBzJlcs8j41DN7OSOT8Ucp+ezUmVbEOa8w7sYZG6Krt6vANu3x4jXmFq8b8XFIfvtdrmU8i8jhwhUZ8gCw+Fk5tiddzpbdrhcfgxFC0KmMD9DxPKDCB+PgvxCAtp3iCmjW0pACSgBJRARAhERhOESgyQazrZ8XcGTJ0+Kk0e+RF2MAtDV0ssYqlSpUkUfypIlC87QSxSEVa5c2YSL6U0M1O7MLyJH7M8/zqJa7azYse0cLl+6hrwF7OOu9Rw/fhwc9+jZd9c8CbpNMfjXzpgmKGL++cfeZ+jRMRHTsLW2c8T3O8eudXo6xiPIiSJOWJelZMxmUEYv2BFpv1Ahu9i+vbGFG8f2cfwgx9NxPOHCBcB34g10tfS32uJploSw5UeCMd4PvEd2R7nmdN/mBI43+sv4veckxP0hZFq6iK6q7nm87YWKA719ma7f2wy5c+yhq1E83iue9Okz5FpK+uSJ9qzqNwa45tJtJaAElIASCDOBIL/tQtO7cM78DWdbvujUqlVLhqJNxq+//irOm6syNn+2DNla7pZ9r4QiBw8ebEQgZyF/9NFHQYnZayIEOA6RYehtnCgQoFV7KAuy50iFCSP3YcqEA3jlebtss9buAjYqKgqPPvr/7d0LbNXVHcDxH0J51RbkIW8BKY0DShFBiEQCNNQMNiYEAtiW1pEZY8J7GhrdjO5BTGxcFHEUSUSnM4rFSqCTYFAmhohExgSkEEp1UKhaRXSU0fa/8zvd7W4vvfQBnP+/vd+TXO+9/9c5/8+/y378zjn3/EI0u+lbMQGvfLJPRMcSauCjkzS+rTBdqiZbdsZs05emN7WrtalFx8+9915tF6wGg3/4vZkU8dcrn22CYhsohgeOoTO0O9v87JDNJGqwqu2NLKWlIsNNl64Gg5rN0zF4kWnZfiaw7G0yhzt21J6tP1GUeV/tmL3I64V/16BRJ8ColbZT2xIqke3WYDeU8WyJQ+i64e9qqUW7kXWM56iU2nbYuipru4dzFtW+a9Cs4zrNzHwKAggggIC/Ar4EhC6zdi7rivYoMzMzZcGCBXbsn2bXNNi728zqXLlyZd3P0+i4Pw26hptAQYO6WbNmyapVq6Jd8rLtmrmLj4+3Xc7hmcbLDozY0LHTDfL8ppHSzvwl/GZlsRwxmcLc3w2TsRO61Tty/37TFWpKVlZWve1Ov2h3pAZcCxeIzJ+nAytFJpvsl2ZfdRbtfWZ7hgma+ptAq6klO6c2gJo7R2TO7NruXZ2Ve6WigZWO48w2gY3Opg0vPzWTOI5+bsYRzjVdodn1u0tDx02dJlJWJvLL+w1ohhlLOKa2ezf8HwkaQOn4uj+vM/e0sPY1x1xzeHLoKg2/60zlGTNFckzdWv+x4tqZyWufqw3Mwtttxq3KhvzamcotcWioBWb8q2RlmqzrYvNufDToC/fS7nLt9p71M5GlZgiFGSYh5n8fFAQQQAABfwV8WbrO5bg+l3U19ih1ZnGlCSB69uxZ71D9oerly5fL7t27621vyRedXKLjCZtbamo8KT1xQfoO6GSGh7W/7PTHHntMtOt77dq1l+1zvkFn2t5g2mgC4HpFJyvoJAsdp9bccsp0P2sZMLD2vSn/1fF/2tUaWTTrp5NP+pvMZUcTAEUrp07VBrPaXp30oc8tbNiAPU27fDXbpmMZI3+WJtp1dbtmJ3Wcn04Y0WyqtjU0ASW83TouUYO0UNd4SxxC7Zgy2Ux82VrbTa0uoa7u0P7wejWbq9nJ8PGaoeN4RwABBBBwLuBLQOj8LgNe4dNPPy0bNmyQ3NxcmyHUsYBBK9nZ2aKTYsbrLF8KAg0JhALC5gSuDV2HbQgggAACzgVMv5T74nJcn8u6WiKpYwp/MJmT2eb34D43P6hcquPLAlheeuklgsEAPpdANSnHdIFHZgUD1UAagwACCCAQTYAMYTQZtiOAAAIIIIAAAjEiQIYwRh40t4kAAggggAACCEQTIEMYTYbtCCCAAAIIIIBAjAiQIYyRB81tIoAAAggggAAC0QTIEEaTYTsCCCCAAAIIIBAjAmQIY+RBc5sIIIAAAggggEA0AV8CQperh7is64UXXpDPPvvMrBb2NyksLIxm3qLt75klwfSa+h5Z/m1+1Hjr1q12/z90pQgfyvdm+TFdjeU/uvybw3LJ/HDzo48+Kvqj3+vWrbP+17r6f31RKRVfmx+IpiCAAAIIINBGBXwJCF3+NqDLuo4cOWKWZf1eTp8+Xbck3bX6u9lh1rR95513ZN48s2RbRKmoqJB3331X1q9fL0888UTE3qv/evDgQXnjjTeueCG9748//tgsPmFWn3BY2ptVPj788EOz0MYNEvK/VtWfPX1RZk3eL5NT9sq4YXtkSc5hqbxgVv2gIIAAAggg0MYEfAkIXWbtXNbVvXt30ZeuV6zv17I89dRTNgPW0DUHDhxol5RbtmxZQ7uvelso63mlC2kbTpw4IQkJCVc67Jrv00Cwd+/eZpW2Ltfc/be/PiafH/pBluUOkdkL+si2LeWy8XmzJB0FAQQQQACBNibgS0DoMmvnsq65c+fK0KFDZeLEiTJ5slnXNazs3LlTxo4dawOX4cOHy5w5c+TFF1+0R3ieJ88884wkJydLnz597HHXsstZA7VZs2ZJv3797CsnJ0e+1XV//1eu1DZdUm/z5s2i6y0//vjj9qXd0+Hl4YcflqSkJBk9enT4Zvv53Llz8tBDD8mgQYNs3ffcc09dt+6nn35q73nJkiUyYcIE6du3r6xevbreNV5//XWZPn263HHHHTJq1Cjrq6u7hBetX0vIP3yfftZ68vLyzJLAX0Tuivr93HdVsnP71zLx7u6ybPUQyVv/E+l+UwfZ/BezBi8FAQQQQACBNibgS0DoMmvnsi4NiDRTpYGXBkChol2uGpA98MADcurUKXnllVfko48+qgtQNBjMz8+Xl19+2XY3P/nkk7Jo0SJ5//33Q5do8XtlZaXMmDFD7rzzTikpKbHL4124cEHuv98sM2ZKY23T7FvPnj0lPj5ebrnlFvvq1atXvfZo9lKvc+zYsXrb9UtWVpacOXNGdu/eLcXFxZKWlmZfX331ldx+++22HW+++aa9//3798tbb70lhw8fttfR8YGrVq2y3dW6T906dep0WR0aTGoJ+UcesGnTJnn77bdl27Ztkbuifv+y9IKYOF1Gpv4/4zlidIKc+rJSqqvNDgoCCCCAAAJtSKCDH/eiWTtXgZrLuqJZvvbaazbL9eCDD9pDNIOoE0804NGi6wQvX77cZhb1u9rMnz/fBohTpkzRTS0u+/bts4GnZiE1S6ZFu7Q3btxo62+sbffee6/opJWqqipZvHhxg+3QbtuuXbtKu3bt6u3XsY2aTdQ1mjVzquWRRx6xdRcVFdmgV8cAatCYmppq96enp9sxgSNGjJC4uDgb5GVnZ8ttt90mKSkpdqykntOcohlKDcBnzpzZnNPssepWV8I+1m3jAwIIIIAAAm1AwJeA0FUwqM/HZV3R/h50okW3bt3q7R4zZkzd94b26/GaTbzaorNvO3fubLt0Q9e69dZbZfbs2Tbgaqju8LbpORrotWT2sF5bg8Ubb7wxVLV9T0xMFM1chkr4uENta3iXsAasmh3UwPaDDz6QpUuX2kyjZi6bWkJd8ZHP4ErnDxrcxdy3yOGDP9Qddvif52XAoM7Svn39wLfuAD4ggAACCCDQSgV86TJ2Oa7PZV3R/gY0y1ZQUCB79+61h2iQpuPxNNjRovufffZZOXv2rP2uGTXt5tTtV1u0q1izXJptW7hwoX2NHz9ejh49arc31jatXwMp7RKuqamxwdqePXtsxq2xtmnX+bhx42TNmjWi3dTaji1bttguYR0X2FjRrua77rpLRo4cKbm5uXbM5ZAhQ+q6lBs7P7Rf69d/GOhYyKaWbt07yPSZvWTv37+TP/3xpKz41RH57tsqmZfVt6mX4DgEEEAAAQRaj4D5P2mKAwEzOcMzgZVnAhrPTMDwzBg+75tvvrE1m2DJM+MLPZMd80zw45mMmmfG5dW1yvy2oGfGJHr9+/f3TLbOvg8YMMDbtWuXPUavrfvMWD97Df08bNgwz0zosPvNpBFv8ODB9qXX0TaEX/9KbdMLaPtMQOWZAM/eg+ny9ky2zl7bdP162pbItr366qt2/8mTJ72pU6fa80y3sWfGIXrbt2+3+w4cOGDbbLqwPdOl65nfWPRM9tAz2T/v0KFDngkIPRPI2mtPmzbNM4GsZ7qP7bnN+Y8Jtm0bQvU29dwzpyu9n0/+xBuauMu+luQc8iovVDf1dI5DAAEEEECg1Qj4snSdy3F9Lutq7J8BmmErKysTEzxdNt5Oz9Uu1vLycru/uePkGqtb92vdHTt2tJNEIo9vrG16vGY2tftYxws2t+jvFOr5mjVsTtHztMtZf9vx5ptvtu1vzvmhY3UMZIcOLRshoRNJunZtLzf1jAtdjncEEEAAAQTalIAvAWGbEuRmEEAAAQQQQACBVi7AGMJW/gBpPgIIIIAAAgggcLUCZAivVpDzEUAAAQQQQACBVi5AhrCVP0CajwACCCCAAAIIXK0AGcKrFeR8BBBAAAEEEECglQu0+QxhK38+NB8BBBBAAAEEELjuAmQIrzsxFSCAAAIIIIAAAsEWIEMY7OdD6xBAAAEEEEAAgesu0KYzhPpDyLrMWkpKSrN/EPm6y1MBAggggAACCCAQEIE2nSE8fvy45OXlSUZGhpSWlgaEnGYggAACCCCAAALBEvAlIDTr4jpRSE1NlYKCAtFl2cy6uU7qpBIEEEAAAQQQQKC1CfgSEOr6wq5KfHy8xMXFyfnz511VST0IIIAAAggggECrEvAlIHSVIQw9icTERCkvLw995R0BBBBAAAEEEEAgTMCXgNBlhlDvddKkSVJYWChr1qyRysrKsNvnIwIIIIAAAggggIAvAaHrDGGPHj3sOMKSkhK5dOkSTx0BBBBAAAEEEEAgTMCXgNB1hrCoqEjS0tIkPz9fEhISwm6fjwgggAACCCCAAAK+BISuM4QVFRWSlJTE00YAAQQQQAABBBBoQMCXgNBlhrC6ulqqqqqkS5cuDdw+mxBAAAEEEEAAAQR8CQhdZQiLi4slMzNTNChMTk7maSOAAAIIIIAAAgg0IOBLQOgqQ6iTSdLT0+W5556zy9c1cP9sQgABBBBAAAEEYl6gTa9lHPNPFwAEEEAAAQQQQKAJAm06Q9iE++cQBBBAAAEEEEAg5gXIEMb8nwAACCCAAAIIIBDrAr5kCGMdnftHAAEEEEAAAQSCJEBAGKSnQVsQQAABBBBAAAEfBAgIfUCnSgQQQAABBBBAIEgCzgPCH3/8UXbs2CFlZWVBcqAtCCCAAAIIIIBAzAo4DwiPHz8ueXl5kpGRIaWlpTELz40jgAACCCCAAAJBEXAeEKampkpBQYHU1NTIgQMHguJAOxBAAAEEEEAAgZgVcB4QqnR8fLzExcXJ+fPnYxaeG0cAAQQQQAABBIIi4EtAqDefmJgo5eXlQXGgHQgggAACCCCAQMwKdPDrzidNmiSFhYVy8eJFWbFihXTu3NmvplAvAggggAACCCAQ0wK+ZQh79OhhxxGWlJTIpUuXYvohcPMIIIAAAggggICfAr4FhEVFRZKWlib5+fmSkJDgpwF1I4AAAggggAACMS3gW0BYUVEhSUlJMY3PzSOAAAIIIIAAAkEQ8CUgrK6ulqqqKunSpUsQDGgDAggggAACCCAQ0wLOA8Li4mLJzMwUDQqTk5NjGp+bRwABBBBAAAEEgiDgfJaxTiZJT0+XsWPHSkpKShAMaAMCCCCAAAIIIBDTAu08U2JagJtHAAEEEEAAAQRiXMB5l3GMe3P7CCCAAAIIIIBA4AQICAP3SGgQAggggAACCCDgVoCA0K03tSGAAAIIIIAAAoETICAM3COhQQgggAACCCCAgFsBAkK33tSGAAIIIIAAAggEToCAMHCPhAYhgAACCCCAAAJuBQgI3XpTGwIIIIAAAgggEDgBAsLAPRIahAACCCCAAAIIuBUgIHTrTW0IIIAAAggggEDgBAgIA/dIaBACCCCAAAIIIOBWgIDQrTe1IYAAAggggAACgRMgIAzcI6FBCCCAAAIIIICAW4H/AmA9vPzwyGVGAAAAAElFTkSuQmCC;" vertex="1" parent="WIyWlLk6GJQsqaUBKTNV-1">
          <mxGeometry x="-620" y="40" width="644" height="268" as="geometry" />
        </mxCell>
        <mxCell id="YoF2BPIvjC0NpefR5XAe-118" value="&lt;b&gt;&lt;font style=&quot;font-size: 16px&quot;&gt;Realtime Stats&lt;/font&gt;&lt;/b&gt;" style="text;html=1;strokeColor=none;fillColor=none;align=left;verticalAlign=middle;whiteSpace=wrap;rounded=0;" vertex="1" parent="WIyWlLk6GJQsqaUBKTNV-1">
          <mxGeometry x="-380" y="40" width="360" height="20" as="geometry" />
        </mxCell>
      </root>
    </mxGraphModel>
  </diagram>
</mxfile>
